<?xml version="1.0" encoding="UTF-8" standalone="no"?>
<svg xmlns="http://www.w3.org/2000/svg" id="svg1" preserveAspectRatio="xMinYMin meet" viewBox="0 0 760 1060" version="1.1">
	<g id="g1488" transform="matrix(-4.2613,0,0,4.2613,792.5847,-30.74645)" stroke="#470000" stroke-miterlimit="4" fill="#dc0000">
		<g id="g1490" stroke-linejoin="miter" fill-rule="evenodd">
			<path id="path1492" d="m32.323,190.65c2.1383,0.60249,7.0249-0.47321,7.2621-3.6426,5.1086,4.3987,8.2928,13.567,6.7196,16.299-3.6098,1.5009-9.0998,1.4382-11.55,2.8937-2.1404-0.65967-2.4419-12.23-2.4317-15.55z" stroke-linecap="butt" stroke-width="0.66529042"/>
			<path id="path1494" d="m34.382,193.23c0.50714,5.5238-0.0072,7.9703,1.4654,12.068" stroke-linecap="round" stroke-width="0.33264521"/>
			<path id="path1496" d="m35.671,194.05c0.50714,5.5238,0.73575,7.2274,1.7131,10.83" stroke-linecap="round" stroke-width="0.33264521"/>
			<path id="path1498" d="m36.662,192.56c1.0024,6.5144,1.4787,8.7133,2.2084,12.068" stroke-linecap="round" stroke-width="0.33264521"/>
			<path id="path1500" d="m38.148,192.56c1.2501,5.7714,1.231,7.475,2.7037,11.573" stroke-linecap="round" stroke-width="0.33264521"/>
			<path id="path1502" d="m39.386,193.31c1.7454,5.5238,2.2216,7.2274,2.9513,10.582" stroke-linecap="round" stroke-width="0.33264521"/>
			<path id="path1504" d="m40.129,191.57c1.993,3.5426,2.2216,7.9703,3.6943,12.068" stroke-linecap="round" stroke-width="0.33264521"/>
			<path id="path1506" d="m41.367,191.08c2.4883,4.7809,2.2216,7.9703,3.6943,12.068" stroke-linecap="round" stroke-width="0.33264521"/>
		</g>
		<path id="path1508" d="m38.926,189.39a5.8638,2.1209,0,1,1,-11.728,0,5.8638,2.1209,0,1,1,11.728,0z" transform="matrix(0.951541,-0.307521,0.307521,0.951541,-53.64371,18.34654)" stroke-dasharray="none" stroke-width="0.62204653"/>
	</g>
	<path id="path2305" stroke-linejoin="miter" d="M107.69,429.78c-12.202,19.33-30.523,41.88-44.829,64.84,260.31,114.54,296.77-187.72,299.97-203.82-17.612-0.80055-53.092-0.57335-61.641-0.57335-4.2184,30.225-76.09,226.76-193.5,139.55z" fill-rule="evenodd" stroke="#000" stroke-linecap="butt" stroke-miterlimit="4" stroke-dasharray="none" stroke-width="2.1262517" fill="#dc0000"/>
	<path id="path2927" stroke-linejoin="miter" d="m122.16,459.1c-2.2228,3.9081-3.6391,5.976-5.3412,8.7626-2.7316-1.0436-5.2969-2.4042-8.3742-4.2299-2.544,3.4538-3.8815,6.094-5.972,9.8391,4.263,2.4501,6.4002,4.2559,9.0838,5.5594-2.2287,3.9355-3.6783,6.465-5.3356,9.6666,3.6172,1.8404,7.7597,4.9117,10.768,5.749,1.6248-2.1016,4.5949-7.026,5.8729-9.3942,3.1189,1.4934,5.9563,3.1831,8.5724,4.1068,1.9177-2.4164,3.3382-5.5474,5.2398-8.2828-2.5466-1.3785-6.7994-3.9766-9.6625-5.9356,1.531-2.7776,3.2104-6.7681,4.9054-9.8244-1.8821-0.93445-5.5049-3.2068-9.7568-6.0166z" fill-rule="evenodd" stroke="#000" stroke-linecap="butt" stroke-miterlimit="4" stroke-dasharray="none" stroke-width="3" fill="#FC0"/>
	<g id="g3402" stroke-linejoin="miter" fill-rule="evenodd" transform="translate(2,2)" stroke="#000" stroke-linecap="butt" stroke-width="3" fill="#FC0">
		<path id="path3550" d="m6.295,429.98c8.1543-11.826,41.41-60.889,48.542-74.015,18.855,40.666,27.473,50.504,39.891,62.72-5.9836,10.225-40.322,58.08-45.178,65.604-13.08-11.6-32.041-23.14-43.255-54.3z"/>
		<path id="path4172" d="m10.772,421.36c-0.00001,0.50345,14.998,30.711,44.993,50.347" fill-opacity="0.75000000000000000" stroke-miterlimit="4"/>
		<path id="path4173" d="m18.788,411.29c0,0.50346,14.998,30.711,44.993,50.346" fill-opacity="0.75000000000000000" stroke-miterlimit="4"/>
		<path id="path4174" d="m24.994,400.71c0,0.50352,14.998,30.711,44.993,50.347" stroke-miterlimit="4"/>
		<path id="path4175" d="m31.2,392.66c0,0.50347,14.998,30.711,44.993,50.346" fill-opacity="0.75000000000000000" stroke-miterlimit="4"/>
		<path id="path4176" d="m37.406,381.58c-0.00001,0.50347,14.998,33.229,44.993,52.864" fill-opacity="0.75000000000000000" stroke-miterlimit="4"/>
		<path id="path4177" d="m46.715,370c-0.000009,0.50346,11.378,35.746,41.373,55.381" fill-opacity="0.75000000000000000" stroke-miterlimit="4"/>
		<path id="path3549" d="m96.173,417.1c-3.4622,3.6029-37.325,57.555-45.265,67.446-3.3415,3.8763,7.362,11.679,10.744,7.8936,7.3508-9.9502,44.019-64.55,45.678-67.089,3.7006-3.2204-8.3995-11.834-11.157-8.2509z" stroke-miterlimit="4"/>
	</g>
	<path id="path1061" stroke-linejoin="miter" d="M372.75,6.868c-9.85,3.513-136.97,139.1-133.12,190.95,5.0232,17.807,20.631,83.915,26.668,95.159,22.463,5.5444,199.9,3.3319,219.14-0.60754,5.4138-1.9687,21.643-85.943,21.643-94.855,1.6-64.11-121.45-186.99-134.33-190.65z" fill-rule="evenodd" stroke="#000" stroke-linecap="butt" stroke-width="2.83500195pt" fill="#c5d2df"/>
	<path id="path4799" stroke-linejoin="miter" d="m643.52,428.18c12.202,19.334,30.523,41.885,44.83,64.843-260.31,114.54-299.57-163.35-299.4-206.4,17.612-0.80052,46.355-3.3684,54.904-3.3684,3.1434,44.559,82.253,232.13,199.66,144.93z" fill-rule="evenodd" stroke="#000" stroke-linecap="butt" stroke-miterlimit="4" stroke-dasharray="none" stroke-width="2.1262517" fill="#dc0000"/>
	<path id="path4800" stroke-linejoin="miter" d="m629.04,457.5c2.2228,3.9081,3.6391,5.976,5.3412,8.7626,2.7316-1.0435,5.297-2.4042,8.3742-4.2299,2.544,3.4538,3.8815,6.094,5.9719,9.8391-4.2629,2.4501-6.4002,4.2558-9.0838,5.5593,2.2287,3.9355,3.6783,6.4651,5.3356,9.6666-3.6172,1.8404-7.7597,4.9116-10.768,5.749-1.6247-2.1016-4.5948-7.026-5.8729-9.3942-3.1189,1.4934-5.9563,3.1831-8.5724,4.1067-1.9177-2.4164-3.3383-5.5474-5.2398-8.2828,2.5465-1.3784,6.7993-3.9766,9.6625-5.9356-1.531-2.7777-3.2104-6.7681-4.9054-9.8244,1.8821-0.93448,5.5049-3.2068,9.7568-6.0166z" fill-rule="evenodd" stroke="#000" stroke-linecap="butt" stroke-miterlimit="4" stroke-dasharray="none" stroke-width="3" fill="#FC0"/>
	<g id="g3412" stroke-linejoin="miter" fill-rule="evenodd" transform="translate(-2,2)" stroke="#000" stroke-linecap="butt" stroke-width="3" fill="#FC0">
		<path id="path4802" d="m744.91,428.38c-8.1544-11.826-41.41-60.889-48.542-74.015-18.855,40.666-27.473,50.504-39.891,62.72,5.9836,10.225,40.322,58.08,45.178,65.604,13.08-11.619,32.041-23.15,43.256-54.31z"/>
		<path id="path4803" d="m740.43,419.76c0,0.50343-14.998,30.711-44.993,50.347" fill-opacity="0.75000000000000000" stroke-miterlimit="4"/>
		<path id="path4804" d="m732.42,409.69c0,0.50347-14.998,30.711-44.993,50.347" fill-opacity="0.75000000000000000" stroke-miterlimit="4"/>
		<path id="path4805" d="m726.21,399.11c0,0.50352-14.998,30.711-44.993,50.347" fill-opacity="0.75000000000000000" stroke-miterlimit="4"/>
		<path id="path4806" d="m720,391.06c0,0.50347-14.998,30.711-44.993,50.346" fill-opacity="0.75000000000000000" stroke-miterlimit="4"/>
		<path id="path4807" d="m713.8,379.98c0,0.50345-14.998,33.229-44.993,52.864" fill-opacity="0.75000000000000000" stroke-miterlimit="4"/>
		<path id="path4808" d="m704.49,368.4c0,0.5035-11.378,35.746-41.373,55.381" fill-opacity="0.75000000000000000" stroke-miterlimit="4"/>
		<path id="path6065" d="m701.67,482.96c-2.1335-4.5184-40.487-55.376-46.902-66.318-2.432-4.503-13.535,2.7196-11.203,7.2281,6.6797,10.413,44.639,64.122,46.421,66.577,1.6912,4.605,14.049-3.634,11.683-7.4866z" stroke-miterlimit="4"/>
	</g>
	<g id="g3435" stroke-linejoin="miter" fill-rule="evenodd" stroke="#460000" stroke-linecap="butt" stroke-miterlimit="4" fill="#dc0000">
		<path id="path6114" d="m149.17,693.56c43.627,2.674,25.838,12.393,60.699,13.37,2.4735,3.8738,1.8448,8.3337,2.7179,10.696-51.28-0.80875-19.594-10.184-62.964-11.587-1.7829-0.3508-0.81207-8.9457-0.45298-12.479z" stroke-width="2.85571337"/>
		<path id="path6120" d="m160.1,707.37c1.15-6.4935-0.78882-8.3985-3.9605-13.095" stroke-width="2.83500195"/>
		<path id="path6121" d="m173.43,709.61c1.15-6.4935-0.53883-8.7736-3.7105-13.47" stroke-width="2.83500195"/>
		<path id="path6122" d="m187.92,716.29c1.15-6.4935-2.9204-9.517-3.0789-14.213" stroke-width="2.83500195"/>
		<path id="path2229" d="m201.63,716.43c1.15-6.4935-0.53883-5.7603-3.7105-10.456" stroke-width="2.83500195"/>
	</g>
	<g id="g2679" stroke-linejoin="miter" fill-rule="evenodd" transform="matrix(4.2613,0,0,4.2613,-31.09852,-28.79686)" stroke="#000" stroke-linecap="butt" stroke-dasharray="none" stroke-miterlimit="4" stroke-width="0.70401051" fill="#c5d2df">
		<path id="path6067" d="m23.939,141.8c0.53435,11.029,9.4375,7.7814,12.414,11.684,2.535,3.4813-2.1438,11.392,10.223,14.897-8.9605-7.3023,1.892-14.404-3.213-20.154-2.423-5.398-12.949,1.9473-19.424-6.426z"/>
		<path id="path6068" d="m18.682,143.85c-1.6655-0.15785-5.9397,0.68641-7.1563,6.1339-2.9921,11.52,4.5762,10.256,10.223,17.233,3.613,4.9401,3.1578,12.268,12.998,11.976,1.8399,0,5.9601-0.14958,7.3023-6.426,1.6728-9.2937-7.0102-9.0549-9.7851-8.7628,7.0268,1.4605,5.8386,6.6928,0.87628,8.4707-4.8425,1.1502-3.4528-6.1286-6.28-9.347-4.6724-6.2784-12.799-4.408-8.4707-13.29,2.5786-1.4354,5.5498,1.3096,6.7181,5.2577,1.4605-2.014,1.8137-9.9481-6.426-11.246z"/>
		<path id="path6071" d="m31.696,153.7c-2.5783,3.5051,2.1515,7.5916,4.9656,4.8195,2.3957-2.9386-1.764-7.7404-4.9656-4.8195z"/>
		<path id="path6072" d="m43.672,143.77c-2.5783,3.5051,2.1515,7.5916,4.9656,4.8195,2.3957-2.9386-1.764-7.7404-4.9656-4.8195z"/>
	</g>
	<g id="g1458" transform="matrix(4.2613,0,0,4.2613,-31.09852,-28.79686)" stroke="#460000" stroke-miterlimit="4" fill="#dc0000">
		<g id="g1448" stroke-linejoin="miter" fill-rule="evenodd">
			<path id="path6086" d="m32.323,190.65c2.1383,0.60249,7.0249-0.47321,7.2621-3.6426,5.1086,4.3987,8.2928,13.567,6.7196,16.299-3.6098,1.5009-9.0998,1.4382-11.55,2.8937-2.1404-0.65967-2.4419-12.23-2.4317-15.55z" stroke-linecap="butt" stroke-width="0.66529042"/>
			<path id="path6123" d="m34.382,193.23c0.50714,5.5238-0.0072,7.9703,1.4654,12.068" stroke-linecap="round" stroke-width="0.33264521"/>
			<path id="path2453" d="m35.671,194.05c0.50714,5.5238,0.73575,7.2274,1.7131,10.83" stroke-linecap="round" stroke-width="0.33264521"/>
			<path id="path2455" d="m36.662,192.56c1.0024,6.5144,1.4787,8.7133,2.2084,12.068" stroke-linecap="round" stroke-width="0.33264521"/>
			<path id="path2457" d="m38.148,192.56c1.2501,5.7714,1.231,7.475,2.7037,11.573" stroke-linecap="round" stroke-width="0.33264521"/>
			<path id="path2459" d="m39.386,193.31c1.7454,5.5238,2.2216,7.2274,2.9513,10.582" stroke-linecap="round" stroke-width="0.33264521"/>
			<path id="path2461" d="m40.129,191.57c1.993,3.5426,2.2216,7.9703,3.6943,12.068" stroke-linecap="round" stroke-width="0.33264521"/>
			<path id="path2463" d="m41.367,191.08c2.4883,4.7809,2.2216,7.9703,3.6943,12.068" stroke-linecap="round" stroke-width="0.33264521"/>
		</g>
		<path id="path1428" d="m38.926,189.39a5.8638,2.1209,0,1,1,-11.728,0,5.8638,2.1209,0,1,1,11.728,0z" transform="matrix(0.951541,-0.307521,0.307521,0.951541,-53.64371,18.34654)" stroke-dasharray="none" stroke-width="0.62204653"/>
	</g>
	<g id="g3429" stroke-linejoin="miter" fill-rule="evenodd" stroke="#460000" stroke-linecap="butt" stroke-miterlimit="4" stroke-width="2.83500195" fill="#dc0000">
		<path id="path6107" d="m120.11,746.88c-4.1766-15.842-2.9993-38.603,3.5939-54.373-21.213,0.14781-23.035,27.634-16.184,60.532,4.4032-4.632,6.0571-3.901,12.59-6.1594z"/>
		<path id="path6115" d="m106.28,747.2c1.15-11.846,7.6605-15.547,11.626-18.458"/>
		<path id="path6116" d="m104.38,730.45c2.0421-7.3856,10.399-15.609,14.364-18.521"/>
		<path id="path6117" d="m105.29,712.23c6.8395-3.4802,9.0072-11.11,14.479-11.009"/>
	</g>
	<path id="path6084" stroke-linejoin="miter" d="m105.84,759.2c0.38314,19.246,30.775,17.751,24.032-5.2303-1.0316-8.418-22.06-11.473-24.032,5.2303z" fill-rule="evenodd" stroke="#460000" stroke-linecap="butt" stroke-miterlimit="4" stroke-width="2.83500195" fill="#dc0000"/>
	<path id="path4809" stroke-linejoin="miter" d="m222.54,676.34c-24.039,294.12,326.15,280.86,307.4,4.8032-19.51-0.59476-31.111-2.166-43.229-2.4016,9.8524,189.36-210.92,245.79-221.75,0.80052-15.141-11.115-38.926-3.9803-42.428-3.2021z" fill-rule="evenodd" stroke="#000" stroke-linecap="butt" stroke-miterlimit="4" stroke-width="3" fill="#FFF"/>
	<path id="path4815" stroke-linejoin="miter" d="m349.4,839.88c0,28.128,0.18329,68.155,0.42589,92.052,14.691-0.37586,30.208,0.69079,45.63,0.77011,0.1166-28.663,0-59.661,0-92.53-19.71,4.2364-22.719,4.5738-46.056-0.29274z" fill-rule="evenodd" stroke="#000" stroke-linecap="butt" stroke-miterlimit="4" stroke-width="3" fill="#FFF"/>
	<path id="path5437" stroke-linejoin="miter" d="m350.36,957.85c0-6.95-0.70791-13.909-0.46798-25.377,14.531,0.39064,29.879-0.0813,45.133-0.16372,0.11534,13.237,0,17.793,0,25.85,0.21691,54.74-48.318,53.205-44.665-0.30935z" fill-rule="evenodd" stroke="#000" stroke-linecap="butt" stroke-miterlimit="4" stroke-width="3" fill="#000"/>
	<path id="path2259" stroke-linejoin="miter" style="color:#000000;" d="m387.05,905.59-14.07-4.9608,5.1243,14.012-12.726,0.0741,4.9608-14.07-14.012,5.1244-0.0742-12.726,14.07,4.9608-5.1244-14.012,12.726-0.0742-4.9608,14.07,14.012-5.1243,0.0741,12.726z" fill-rule="nonzero" stroke-dashoffset="0" display="block" stroke="#000" stroke-linecap="round" stroke-miterlimit="4" stroke-dasharray="none" stroke-width="1.5" fill="#dc0000"/>
	<path id="path2265" stroke-linejoin="miter" style="color:#000000;" d="m294.87,847.89,14.545,3.322-11.816,9.108,10.719,6.8603,3.3221-14.545,9.108,11.817,6.8603-10.719-14.545-3.322,11.817-9.108-10.719-6.8603-3.3221,14.545-9.108-11.816-6.8602,10.719z" fill-rule="nonzero" stroke-dashoffset="0" display="block" stroke="#000" stroke-linecap="round" stroke-miterlimit="4" stroke-width="1.5" fill="#dc0000"/>
	<path id="path1497" stroke-linejoin="miter" style="color:#000000;" d="m449.17,848.6-14.545,3.322,11.817,9.1081-10.719,6.8603-3.3221-14.545-9.108,11.817-6.8603-10.719,14.545-3.322-11.817-9.108,10.719-6.8602,3.3221,14.545,9.108-11.816,6.8602,10.719z" fill-rule="nonzero" stroke-dashoffset="0" display="block" stroke="#000" stroke-linecap="round" stroke-miterlimit="4" stroke-width="1.5" fill="#dc0000"/>
	<g id="g3422" stroke-linejoin="miter" fill-rule="evenodd" stroke="#460000" stroke-linecap="butt" stroke-miterlimit="4" fill="#dc0000">
		<path id="path6147" d="m603.39,692.53c-24.226-1.7842-32.58,15.972-74.936,12.489-1.5435,0.3087-2.7086,9.233-3.5684,11.597,47.819,3.6511,48.734-12.869,78.951-12.489-2.7049-3.9195,1.6917-8.0614-0.44609-11.597z" stroke-width="2.69325209"/>
		<path id="path6155" d="m591.29,705.85c-1.1781-5.8039,1.3203-8.959,4.5695-13.156" stroke-width="2.57715297"/>
		<path id="path6156" d="m579.91,707.57c-1.1426-6.6846,1.2806-7.2166,4.4318-12.051" stroke-width="2.72379065"/>
		<path id="path6157" d="m567.37,713.31c-1.1664-6.0824,1.3073-9.389,4.5244-13.788" stroke-width="2.62520361"/>
		<path id="path2233" d="m553.78,717.34c-1.1654-6.108,1.3061-9.4285,4.5203-13.846" stroke-width="2.62954783"/>
	</g>
	<path id="path5438" stroke-linejoin="miter" d="m133.32,220.03c-6.3285-3.3682-13.866,5.0176-11.58,9.6064,9.069,10.448,16.396,18.221,11.865,23.215-25.8,0.91482-21.429,5.3734-37.482,23.39,6.2016,7.6638,8.6344,9.9415,15.242,17.58,19.647-16.552,23.796-1.6451,12.436,12.38,4.9194,4.3927,7.6637,6.5882,11.865,10.835,7.6034-8.2887,12.996-13.787,15.836-17.612-3.7432-2.9778-5.8552-5.0235-9.8712-8.286,2.575-2.9276,5.3888-6.4061,8.9085-10.644,3.0446,3.0613,7.2755,7.108,10.458,9.839,3.6002-3.6958,4.9909-6.5539,7.8376-9.8251,5.4478,4.7268,7.6329,5.6852,10.939,8.6265-2.9266,2.7306-6.4601,7.2929-8.328,9.4276,3.503,2.9999,8.9015,5.1285,10.769,7.2632-3.2114,3.8756-6.7733,6.8802-9.2983,9.8457-4.1299-3.2115-5.0876-4.0969-8.4641-7.2112-5.3781,6.4338-7.6458,9.0813-14.675,17.175,5.8673,5.8188,12.294,9.9563,16.364,13.729,16.289-18.864,28.993-8.747,14.838,10.153,2.1739,2.3354,10.241,7.6403,15.725,11.778,23.066-22.652,17.916-25.037,18.729-40.486-1.59-16.176,21.26,5.8776,123.17,86.029,22.753,9.374,29.897,0.34,20.465-12.293-50.93-40.08-221.51-174.09-225.74-174.52z" fill-rule="evenodd" stroke="#000" stroke-linecap="butt" stroke-miterlimit="4" stroke-dasharray="none" stroke-width="3" fill="#FC0"/>
	<g id="g2667" stroke-linejoin="miter" fill-rule="evenodd" transform="matrix(4.2613,0,0,4.2613,-34.276528,-28.267192)" stroke="#000" stroke-linecap="butt" stroke-dasharray="none" stroke-miterlimit="4" stroke-width="0.70401049" fill="#FC0">
		<path id="path6073" d="m167.34,140.84c-0.53435,11.029-9.4375,7.7814-12.414,11.684-2.535,3.4813,2.1438,11.392-10.223,14.897,8.9605-7.3023-1.892-14.404,3.213-20.154,2.423-5.398,12.949,1.9473,19.424-6.426z"/>
		<path id="path6074" d="m172.6,142.88c1.6655-0.15785,5.9397,0.68641,7.1563,6.1339,2.9921,11.52-4.5762,10.256-10.223,17.233-3.613,4.9401-3.1578,12.268-12.998,11.976-1.8399,0-5.9601-0.14958-7.3023-6.426-1.6728-9.2937,7.0102-9.0549,9.7851-8.7628-7.0268,1.4605-5.8386,6.6928-0.87627,8.4707,4.8425,1.1502,3.4528-6.1286,6.28-9.347,4.6724-6.2784,12.799-4.408,8.4707-13.29-2.5786-1.4354-5.5498,1.3096-6.7181,5.2577-1.4605-2.014-1.8137-9.9481,6.426-11.246z"/>
		<path id="path6076" d="m159.58,152.74c2.5783,3.5051-2.1515,7.5916-4.9656,4.8195-2.3957-2.9386,1.764-7.7404,4.9656-4.8195z"/>
		<path id="path6077" d="m147.61,142.81c2.5784,3.5051-2.1514,7.5916-4.9656,4.8195-2.3956-2.9386,1.764-7.7404,4.9656-4.8195z"/>
	</g>
	<path id="path3260" d="m712.08,686.71a13.823,13.823,0,1,1,-27.646,0,13.823,13.823,0,1,1,27.646,0z" stroke="#000" stroke-dasharray="none" stroke-miterlimit="4" stroke-width="3" fill="#FC0"/>
	<path id="path6151" stroke-linejoin="miter" d="m636.59,746.74c4.1766-15.842,5.3743-39.822-5.6252-55.185,21.213,0.14782,25.066,28.446,18.215,61.345-4.4032-4.632-6.0571-3.901-12.59-6.1594z" fill-rule="evenodd" stroke="#460000" stroke-linecap="butt" stroke-miterlimit="4" stroke-width="2.69325209" fill="#dc0000"/>
	<path id="path6152" stroke-linejoin="miter" d="m650.42,745.31c-1.15-11.846-7.098-13.609-11.063-16.521" fill-rule="evenodd" stroke="#460000" stroke-linecap="butt" stroke-miterlimit="4" stroke-width="2.69325209" fill="#dc0000"/>
	<path id="path6153" stroke-linejoin="miter" d="m652.01,727.99c-2.0421-7.3855-8.8993-13.484-12.864-16.396" fill-rule="evenodd" stroke="#460000" stroke-linecap="butt" stroke-miterlimit="4" stroke-width="2.69325209" fill="#dc0000"/>
	<path id="path6154" stroke-linejoin="miter" d="m650.97,711.15c-3.8263-6.4934-11.27-8.6038-15.236-11.516" fill-rule="evenodd" stroke="#460000" stroke-linecap="butt" stroke-miterlimit="4" stroke-width="2.69325209" fill="#dc0000"/>
	<path id="path2495" stroke-linejoin="miter" d="m654.67,758.59c-0.38318,19.246-30.775,17.751-24.032-5.2303,1.0316-8.4179,22.06-11.473,24.032,5.2303z" fill-rule="evenodd" stroke="#000" stroke-linecap="butt" stroke-miterlimit="4" stroke-width="2.83500195" fill="#dc0000"/>
	<path id="path3256" stroke-linejoin="miter" d="m602.65,221.7c6.2298-3.5473,14.003,4.62,11.849,9.2721-8.7672,10.703-15.869,18.681-11.198,23.544,25.816,0.17853,21.573,4.76,38.134,22.311-5.9805,7.8376-8.3473,10.184-14.734,18.008-20.111-15.985-23.833-0.96567-12.078,12.73-4.7921,4.5312-7.4726,6.8042-11.551,11.169-7.8368-8.0684-13.384-13.41-16.332-17.153,3.6568-3.0834,5.2004-5.8098,9.1217-9.1856-2.6574-2.853-5.7064-5.5578-9.3456-9.6937-2.9561,3.1469-6.4235,7.242-9.5268,10.063-3.7041-3.5916-5.2568-7.0336-8.1957-10.222-5.3108,4.8803-7.3157,6.0641-10.537,9.0985,3.0032,2.646,6.5946,7.567,8.5226,9.6476-3.416,3.0985-8.231,6.9858-10.037,9.173,3.3206,3.7824,5.8357,6.5481,8.4441,9.4404,4.0366-3.328,5.5792-5.7099,8.8656-8.9192,5.5594,6.2778,7.9016,8.8596,15.159,16.749-5.6988,5.9838-12.005,10.303-15.965,14.19-16.821-18.392-29.231-7.9165-14.542,10.572-2.1064,2.3964-10.019,7.9293-15.383,12.222-23.703-21.985-18.623-24.516-19.876-39.935,1.128-16.215-21.084,6.4816-120.67,89.507-22.477,10.019-29.876,1.1926-20.808-11.705,49.769-41.519,216.46-180.34,220.68-180.88z" fill-rule="evenodd" stroke="#000" stroke-linecap="butt" stroke-miterlimit="4" stroke-dasharray="none" stroke-width="3" fill="#c5d2df"/>
	<g id="g3472" stroke-linejoin="miter" fill-rule="evenodd" stroke="#000" stroke-linecap="butt" stroke-dasharray="none" stroke-miterlimit="4">
		<path id="path3342" d="m158.24,374.35c0,50.406,5.6044,205.97,27.171,292.09,82.082,207.56,286.99,208.9,378.13,9.0569,25.927-48.122,32.127-250.9,32.236-298.88-143.29,14.815-311.19,14.852-437.53-2.2642z" stroke-width="2.83500004" fill="#dc0000"/>
		<path id="path6063" d="m159,374.82c0,50.406,1.076,202.64,26.904,288.76,111.79,6.03,177.09-193.43,185.6-275.22-75.26-0.28-149.33-4.99-212.5-13.54z" stroke-width="4" fill="#FC0"/>
		<path id="path6064" d="M567.81,665.68c24.42-48.12,28.79-242.63,28.9-290.61-71.65,7.41-150.27,14.06-225.53,13.78,35.68,189.92,134.17,266.1,196.63,276.83z" stroke-width="4" fill="#FC0"/>
	</g>
	<g id="g3316" stroke-linejoin="miter" fill-rule="evenodd" transform="translate(-4,0)" stroke="#000" stroke-miterlimit="4" stroke-width="3" fill="#FC0">
		<path id="path6183" d="m321.62,599.37c10.084,0.40262,95.505-1.4094,111.16-0.32368,7.5356,7.163-0.7239,58.376-10.874,58.97-7.9719,0.48391-66.474,0.71074-92.559,0.60578-6.9917,1.8257-22.772-57.81-7.7263-59.252z" stroke-linecap="butt" stroke-dasharray="none"/>
		<path id="path6169" d="m373.93,594.45c-18.44,6.4657-38.368,47.583-85.248,69.654-13.49,9.3955-4.6568,19.565,5.0912,26.265-10.572,13.85,6.425,23.738,13.42,32.604-1.2797,12.104,6.766,17.686,17.016,19.5,3.4348,14.59,13.659,22.857,30.541,21.937,10.433,15.024,28.856,11.343,42.614-0.28756,12.289,3.258,26.478-3.139,29.247-18.217,13.146-4.0702,21.578-12.316,21.013-30.344,8.5412-4.5051,17.622-13.162,14.481-30.272,4.7588-5.3345,12.802-14.498-2.1252-24.581-71.665-47.396-60.227-61.151-75.564-66.21-4.6813-0.74983-7.8702-1.2298-10.486-0.048z" stroke-linecap="butt" stroke-dasharray="none"/>
		<path id="path6192" d="m293.74,689.9c33.019-17.749,47.556-38.375,61.833-60.673" fill-opacity="0.75000000000000000" stroke-linecap="round" stroke-dasharray="none"/>
		<path id="path6200" d="m307.27,721.98c27.222-19.682,34.03-52.094,48.307-74.393" fill-opacity="0.75000000000000000" stroke-linecap="round" stroke-dasharray="none"/>
		<path id="path6201" d="m324.08,742.07c22.391-22.58,25.338-57.505,37.293-84.828" fill-opacity="0.75000000000000000" stroke-linecap="round" stroke-dasharray="none"/>
		<path id="path6202" d="M354.61,763.91c12.73-40.94,12.77-68.91,15.45-100.87" fill-opacity="0.75000000000000000" stroke-linecap="round" stroke-dasharray="none"/>
		<path id="path6203" d="M447.26,715.41c-26.45-19.68-36.35-49.39-50.63-71.69" fill-opacity="0.75000000000000000" stroke-linecap="round" stroke-dasharray="none"/>
		<path id="path6205" d="M397.21,763.72c-12.73-40.94-12.39-67.75-15.07-99.71" fill-opacity="0.75000000000000000" stroke-linecap="round" stroke-dasharray="none"/>
		<path id="path6206" d="m460.88,684.97c-31.087-8.088-38.861-30.066-58.935-54.296" fill-opacity="0.75000000000000000" stroke-linecap="round" stroke-dasharray="none"/>
		<path id="path1813" d="m376.99,602.8c14.415,4.4409,9.9376,5.8178,16.644,14.518" fill-opacity="0.75" stroke-linecap="round" stroke-dasharray="none"/>
		<path id="path2227" d="m426.91,745.9c-27.222-19.682-22.833-66.381-37.11-88.679" fill-opacity="0.75000000000000000" stroke-linecap="round"/>
	</g>
	<path id="path6061" stroke-linejoin="miter" d="m158.24,374.35c0,50.406,5.6044,205.97,27.171,292.09,82.082,207.56,286.99,208.9,378.13,9.0569,25.927-48.122,32.127-250.9,32.236-298.88-143.29,14.815-311.19,14.852-437.53-2.2642z" stroke="#000" stroke-linecap="butt" stroke-miterlimit="4" stroke-dasharray="none" stroke-width="6" fill="none"/>
	<path id="path3262" d="m63.537,690.47a13.823,13.823,0,0,1,-27.646,0,13.823,13.823,0,1,1,27.646,0z" stroke="#000" stroke-miterlimit="4" stroke-dasharray="none" stroke-width="3" fill="#c5d2df"/>
	<path id="path6237" stroke-linejoin="miter" d="m230.72,555.67c-6.023,5.097-37.411,22.165-33.778,28.412,16.844,1.0514,41.384-29.508,27.048,3.2088,11.735-4.2206,18.635-10.203,22.561-19.643,13.862,4.5798-9.8106,18.57,21.673,21.194,22.429-20.593,1.3452-17.613,8.0481-28.278,5.8463,2.5341,7.9097,7.9751,17.844,5.7762-12.694-15.148,10.214-5.3882,22.876-22.1-8.6601-2.4515-30.56-2.8726-41.801,1.6454-26.999,14.573-33.542,11.348-44.47,9.7835z" fill-rule="evenodd" stroke="#000" stroke-linecap="butt" stroke-miterlimit="4" stroke-dasharray="none" stroke-width="2" fill="#dc0000"/>
	<path id="path6242" stroke-linejoin="miter" d="m236.64,527.91c1.9632-3.4393,18.392-16.77,23.068-21.764,2.7347-1.9264,38.165-3.9082,26.07,7.0979-6.9469,4.0498-8.7608,25.904-9.8115,30.218-17.155,14.487-36.229,8.3526-43.429,4.2607,0-8.1331,1.145-14.712,4.1024-19.812z" fill-rule="evenodd" stroke="#000" stroke-linecap="butt" stroke-miterlimit="4" stroke-dasharray="none" stroke-width="2" fill="#520"/>
	<path id="path6266" stroke-linejoin="miter" d="m207.37,461.78c-1.0946,22.797-6.8485,15.615-11.303,30.302,1.4394,4.4201,8.7746,4.9731,10.683,7.9438-5.9706,9.1147,5.4241,16.926,2.5955,19.929,0.6802,5.0168-4.803,12.336-2.1358,17,11.053,10.074,17.277,0.61553,33.312-1.1872,6.7401,0.39327,13.905-3.4784,14.753-9.8914,1.3798-5.1354,4.7615-11.663,7.5186-21.223-2.5436-10.304-9.8012,5.7378-7.5473-24.67,0.72707-19.905-0.49777-25.827-21.947-24.873-6.3097,0.60204-26.017-9.6143-25.929,6.6689z" fill-rule="evenodd" stroke="#000" stroke-linecap="butt" stroke-miterlimit="4" stroke-dasharray="none" stroke-width="2" fill="#520"/>
	<path id="path6264" stroke-linejoin="miter" d="m215,470.03c5.767-2.8952,14.951-6.5658,24.086,8.8293" stroke="#000" stroke-linecap="round" stroke-miterlimit="4" stroke-dasharray="none" stroke-width="3.14685225" fill="none"/>
	<path id="path6265" stroke-linejoin="miter" d="m216.11,479.03c1.2536-2.1454,4.8916-3.8144,7.4442-4.6423,2.9252-0.57594,4.9804,0.35019,7.0991,3.5374,2.4626,3.7046,1.7813,6.546-5.0705,6.7746-3.0498,0.10168-3.297-0.11601-4.7568-0.16736-2.0007-0.0704-4.3396-4.3419-4.716-5.5023z" fill-rule="evenodd" stroke="#000" stroke-linecap="butt" stroke-miterlimit="4" stroke-dasharray="none" stroke-width="0.87885058" fill="#FFF"/>
	<path id="path6273" stroke-linejoin="miter" d="m210.62,454.46c-4.4606,0.49093-8.307-10.51,0.5364-17.828,16.961-3.3466,27.156-13.932,72.472-4.5926,27.058,24.372,23.005,36.53,16.379,46.794-3.0646,4.7471,7.8206,17.089,6.479,22.047-8.7604,12.033-21.021,20.802-23.13,16.838-9.8417-6.213-18.347-10.521-23.046-11.73-5.6782-4.7216-5.2032-12.742-6.674-19.327-0.85104-6.32-0.49346-12.784-3.3462-18.458-8.5862-5.3682-0.93186-19.43-39.67-13.743z" fill-rule="evenodd" stroke="#000" stroke-linecap="butt" stroke-miterlimit="4" stroke-dasharray="none" stroke-width="2" fill="#311b16"/>
	<path id="path6278" stroke-linejoin="miter" d="m202.57,505.37c-2.541,12.311,4.6586,5.7467,7.8878,10.606-5.4571,0.98556-7.2975,2.8724-7.2033,6.8279,3.143,7.3955,15.606,1.7634,15.37-7.768-0.53794-7.3764-13.339-12.615-16.054-9.6663z" fill-rule="evenodd" stroke="#000" stroke-linecap="butt" stroke-miterlimit="4" stroke-dasharray="none" stroke-width="2" fill="#dc0000"/>
	<path id="path2938" stroke-linejoin="miter" d="m232.11,547.42c-8.0088-2.3673-9.0095,7.37,0.64759,8.9936,16.262,6.388,33.678,0.82047,41.177-5.3106,7.1069-4.1546,8.8748-12.297-4.2932-7.5036-14.28,7.0172-22.218,8.4602-37.532,3.8207z" fill-rule="evenodd" stroke="#000" stroke-linecap="butt" stroke-miterlimit="4" stroke-dasharray="none" stroke-width="2" fill="#FC0"/>
	<path id="path3703" stroke-linejoin="miter" style="color:#000000;" d="m225.29,479.47c-0.28934,2.6692-1.4687,4.9118-2.4756,4.7072-1.0069-0.20457-1.6598-2.8193-1.3704-5.4886,0.28934-2.6692,1.2176-3.9529,2.2245-3.7484,1.0069,0.20457,1.9109,1.8605,1.6215,4.5298z" fill-rule="nonzero" stroke-dashoffset="0" display="block" stroke="#000" stroke-linecap="butt" stroke-miterlimit="4" stroke-dasharray="none" stroke-width="0.87885046" fill="#0e0031"/>
	<path id="path3707" stroke-linejoin="miter" d="m257.71,502.8c5.8805-18.86,21.056-21.141,18.841-6.6155-20.86,38.838-21.129,18.526-20.284,11.936" fill-rule="evenodd" stroke="#000" stroke-linecap="butt" stroke-miterlimit="4" stroke-dasharray="none" stroke-width="0.87885058" fill="#520"/>
	<path id="path3715" stroke-linejoin="miter" d="m261.5,502.86c6.9482-11.66,13.244-13.736,9.3168-5.0507" stroke="#000" stroke-linecap="butt" stroke-miterlimit="4" stroke-dasharray="none" stroke-width="0.87885058" fill="none"/>
	<path id="path2551" stroke-linejoin="miter" style="color:#000000;" d="m267.47,511.21c-0.74908,1.4121-2.3301,2.7176-2.6708,4.329,1.747,1.8224,3.4206,3.8321,4.2407,6.2737,2.0963,5.3402-0.46922,11.779-5.3787,14.581-5.1971,3.1592-12.481,1.4672-16.068-3.3495-3.5268-4.5154-2.9291-11.401,0.89393-15.55,2.8955-3.2319,7.6331-4.7018,11.849-3.6674,1.1554-1.1283,2.1005-3.1042,1.163-4.6228-1.2166-0.98897-2.9689-0.73537-4.4492-0.82881-7.2164,0.0642-14.068,5.1031-16.201,12.013-2.3303,6.7865,0.12656,14.858,5.8641,19.175,5.6762,4.522,14.213,4.8858,20.247,0.84802,6.6023-4.241,9.6936-13.245,6.8135-20.593-1.153-3.1387-3.6036-6.6247-6.3043-8.608z" fill-rule="nonzero" stroke-dashoffset="0" display="block" stroke="#000" stroke-linecap="round" stroke-miterlimit="4" stroke-dasharray="none" stroke-width="0.70875049000000001" fill="#d4aa00"/>
	<path id="path5901" d="m264.31,502.81a1.3956,2.9905,30.28,1,1,-2.4103,-1.4074,1.3956,2.9905,30.28,1,1,2.4103,1.4074z" stroke="#000" stroke-dasharray="none" stroke-miterlimit="4" stroke-width="0.59535038" fill="#000"/>
	<path id="path6216" stroke-linejoin="miter" d="m433.03,420.81c-7.6268-15.468-0.0989-11.349,4.7092-5.1447,4.6832,6.089,7.0174,4.5496,14.837,11.177,1.487,1.718,2.4156,3.8255,3.2157,5.9295-13.301-1.1342-12.901-6.4538-22.762-11.962z" fill-rule="evenodd" stroke="#600000" stroke-linecap="butt" stroke-miterlimit="4" stroke-width="1.06312585" fill="#dc0000"/>
	<path id="path6227" stroke-linejoin="miter" d="m417.61,455.91c-5.6512,1.2702-5.4475,8.5714-3.8803,12.906,2.7534,8.1262,12.444,9.0297,19.57,10.912,7.192,1.2132,30.284,11.795,36.41,12.086,5.9627,3.1094,16.28-22.191,10.094-24.545-46.928,13.782-54.612-12.147-62.194-11.36z" fill-rule="evenodd" stroke="#000" stroke-linecap="butt" stroke-miterlimit="4" stroke-width="3" fill="#520"/>
	<path id="path6232" stroke-linejoin="miter" d="m486.52,546.35c-6.2647-3.8256-11.504-6.3348-19.715-9.4354-6.8264-0.93597-14.062-3.0289-13.427,5.9992,0.38582,8.1804,28.418,16.158,34.324,19.856,5.4625,5.2287,11.611-0.0747,15.332-4.2469,5.4301-2.7064,11.717-0.99333,17.302-3.1478,5.6775-1.0845,11.476-3.9516,14.748-8.8308-1.4765-6.2389-1.8309-13.233-2.5193-20.033-4.3427-8.6573-15.862-6.2713-23.658-8.95-18.939-1.9779-9.7562,30.648-22.387,28.789z" fill-rule="evenodd" stroke="#000" stroke-linecap="butt" stroke-miterlimit="4" stroke-width="3" fill="#520"/>
	<path id="path6207" stroke-linejoin="miter" d="m508.87,437.26c11.611-8.834,3.1547-17.928-17.893-13.826-13.694-17.827-31.199-4.7332-44.394-13.228-2.9881-0.59762-2.1775,1.587-4.6575,4.8726,0.76576,0.65634,17.474,17.956,18.46,19.434,1.1828,1.7742-17.93-10.026-20.241-10.488-4.3168-0.86334-1.7361,8.0897-1.688,8.5705,0.12828,1.2834,12.194,16.83,14.889,18.178,7.3318-0.6573,16.831,17.497,17.298,19.833-1.1966,11.91-2.6157,14.528-12.2,29.686-13.513,3.825-29.474-15.453-34.159-4.8798-1.9366,0,2.9304,9.5097,3.1916,9.6047,23.814,13.831,29.712,11.602,40.727,15.608,1.7426,0.63371,15.486-11.923,21.959-27.246,2.2178-1.9406-6.14,9.7754-5.6931,10.166,10.827,24.519,35.831,37.58,37.099,38.531,1.285-6.7951,0.10727-17.576,4.3796-28.365-1.2544,7.8988-11.52,35.179,5.6931,48.798,2.0979,19.362-39.712,6.0282-46.2,10.416-0.98936,9.5814,8.6542,14.91,19.361,14.39,6.1942,3.8179,28.059,0,39.039,8.1331,10.316-38.81,18.627-23.912,21.146-65.878,2.1781,0.31753,6.0858,18.709,4.8104,23.459-0.57307,2.8654,8.2019,5.5704,6.5195-29.18-5.3131-31.156-7.283-70.768-67.448-86.589z" fill-rule="evenodd" stroke="#000" stroke-linecap="butt" stroke-miterlimit="4" stroke-width="3" fill="#520"/>
	<path id="path6208" stroke-linejoin="miter" d="m500.22,439.28c22.706-2.0318,17.692-20.785-8.2059-16.29" stroke="#000" stroke-linecap="butt" stroke-miterlimit="4" stroke-dasharray="none" stroke-width="1.19070017" fill="none"/>
	<path id="path3717" stroke-linejoin="miter" d="m493.82,427.57c21.03-4.7218,15.42,11.864,2.8211,6.4227" stroke="#000" stroke-linecap="butt" stroke-miterlimit="4" stroke-dasharray="none" stroke-width="0.70875049" fill="none"/>
	<rect id="rect6209" stroke-linejoin="miter" style="color:#000000;" stroke-dasharray="none" fill-rule="nonzero" stroke-dashoffset="0" display="block" transform="matrix(0.65949392,0.7517099,-0.7517099,0.65949392,0,0)" height="50.859" width="59.047" stroke="#000" stroke-linecap="butt" stroke-miterlimit="4" y="-107.96" x="683.2" stroke-width="3" fill="#dc0000"/>
	<path id="path6212" stroke-linejoin="miter" d="m531.67,519.56c0.21306,0,4.0666-3.2532,9.7597-0.81331" stroke="#000" stroke-linecap="butt" stroke-miterlimit="4" stroke-dasharray="none" stroke-width="1.98450136" fill="none"/>
	<path id="path6213" stroke-linejoin="miter" d="m531.67,443.16c3.4663,0,4.0666,0,6.5064-2.4399" stroke="#000" stroke-linecap="butt" stroke-miterlimit="4" stroke-width="1.77187622" fill="none"/>
	<rect id="rect6210" stroke-linejoin="miter" style="color:#000000;" stroke-dasharray="none" fill-rule="nonzero" stroke-dashoffset="0" display="block" transform="matrix(0.65949392,0.7517099,-0.7517099,0.65949392,0,0)" height="50.859" width="59.047" stroke="#000" stroke-linecap="butt" stroke-miterlimit="4" y="-114.28" x="687.29" stroke-width="3" fill="#dc0000"/>
	<path id="path6214" stroke-linejoin="miter" d="m539.81,442.3c2.4399,15.904,2.9821,51.374,0.81331,74.824" stroke="#000" stroke-linecap="butt" stroke-miterlimit="4" stroke-width="4" fill="none"/>
	<path id="path6211" stroke-linejoin="miter" d="m495.07,475.64c0.20838,0,6.1136-1.0401,7.7264-1.6266,31.213-3.143,73.928,11.386,74.418,11.386" stroke="#000" stroke-linecap="butt" stroke-miterlimit="4" stroke-width="4" fill="none"/>
	<path id="path4477" stroke-linejoin="miter" d="m468.33,422.39c5.5251-5.6596,10.346,2.2033,6.9896,3.2882-4.1797,0.29944-6.3825-0.69349-6.9896-3.2882z" fill-rule="evenodd" stroke="#000" stroke-linecap="butt" stroke-miterlimit="4" stroke-width="1.04342091" fill="#FFF"/>
	<path id="path4151" d="m446.56,412.88a1.8106,1.5158,0,0,1,-3.6212,0,1.8106,1.5158,0,1,1,3.6212,0z" stroke="#000" stroke-dasharray="none" stroke-miterlimit="4" stroke-width="1.9845016" fill="#000"/>
	<path id="path2432" d="m472.77,423.82a1.0611,2.1222,55.248,1,1,-1.2097,-1.7437,1.0611,2.1222,55.248,1,1,1.2097,1.7437z" stroke="#000" stroke-dasharray="none" stroke-miterlimit="4" stroke-width="0.59535038" fill="#000"/>
	<path id="path1683" stroke-linejoin="miter" d="m293.26,94.381c-7.9182,9.9291-17.346,24.563-27.432,39.817,3.6014,2.4529,83.785-0.95603,86.591,3.5955,4.7576,6.9272,3.9504,33.713-1.9637,32.626-90.282-0.98184-88.224,3.4826-98.71-12.651-15.299,35.507-12.632,39.299-2.9297,77.636,5.4673-33.383,12.242-28.077,101.34-26.633,8.5111,6.7934,6.0099,25.996,3.0628,34.923-0.83119,6.2269-89.093,2.1746-100.44,2.9456,3.8169,19.865,7.3162,30.092,13.016,46.208,95.574,7.3108,124.23,7.3108,220.32-0.98186,5.8235-11.207,10.296-35.18,11.186-46.208-11.593-0.77098-102.58,4.2632-104.67-1.9637-3.0109-8.9277-5.4993-28.13,3.196-34.923,91.025-1.444,98.017-6.7496,103.6,26.633,6.9026-42.264,12.568-38.202-3.0628-77.636-10.713,16.133-12.231,12.651-100.97,12.651-5.0178,1.0879-6.8242-25.698-1.9637-32.626,2.8672-4.5515,86.873-1.1426,90.553-3.5955-10.304-15.253-19.875-29.887-27.965-39.817-11.021,5.7729-12.444,9.9632-82.38,9.7211-71.9-0.24215-69.595-3.9483-80.382-9.7211z" fill-rule="evenodd" stroke="#000" stroke-linecap="butt" stroke-miterlimit="4" stroke-dasharray="none" stroke-width="3" fill="#FC0"/>
	<path id="path3361" stroke-linejoin="round" d="M372.75,6.868c-9.85,3.513-136.97,139.1-133.12,190.95,5.0232,17.807,20.631,83.915,26.668,95.159,22.463,5.5444,199.9,3.3319,219.14-0.60754,5.4138-1.9687,21.643-85.943,21.643-94.855,1.6-64.11-121.45-186.99-134.33-190.65z" stroke="#000" stroke-linecap="round" stroke-miterlimit="4" stroke-dasharray="none" stroke-width="3.54399991" fill="none"/>
	<g id="g3219" fill="#dc0000" stroke="#000" transform="matrix(1.0402476,0,0,1,808.89148,7.5076804)">
		<g id="g3216">
			<path id="path3212" style="enable-background:accumulate;color:#000000;" d="m-581.86,435.05c17.685-1.5307,63.67,8.1121,98.284,15.196,10.597-7.4436,22.289-19.682,25.245-25.735-13.394-2.8188-26.034-6.6945-38.848,12.745-2.4379,0.98726-7.8997,1.2454-7.353-1.8382,2.4404-9.2849-5.121-20.509-11.397-1.5931-2.5285,0.72979-5.1341,3.0783-7.3529-2.6961l-0.48-6.13c8.2126-7.599,8.7953-14.04,1.7157-19.363l-4.6569-7.3529-9.9265,5.2696c-11.19,3.2738-6.6596,12.376-2.9412,18.505l-2.9412,4.902c-3.504,3.1182-7.4665,2.9962-7.9657-3.1863-0.0433-10.479-9.6173-11.148-9.1437-0.37513,0.33838,6.3385-6.8544,6.2603-6.0163-0.13211l-0.2812-4.6398c0.0293-1.5179-6.0284-13.558-31.127-12.5,2.0967,14.258,10.129,19.284,15.196,28.922z" stroke="#000" stroke-width="1.96092796000000000" fill="#dc0000"/>
		</g>
		<path id="path3214" style="enable-background:accumulate;color:#000000;" d="m-582.11,435.42c1.1165,3.0388-2.8326,0.0912,4.6569,10.662,30.851,3.1632,61.221,9.6882,91.422,17.402,4.2048-2.4011,3.6765-8.4117,1.7157-12.745-28.927-6.6681-78.263-19.676-97.794-15.319z" stroke-width="1.96092796000000000"/>
	</g>
</svg>
