<?xml version="1.0" encoding="UTF-8" standalone="no"?>
<svg xmlns="http://www.w3.org/2000/svg" version="1.1" preserveAspectRatio="xMinYMin meet" viewBox="0 0 826 1000" id="svg2">
	<defs id="defs4"/>
	<g transform="matrix(1.0004075,0,0,1.0032693,-1879.632,-686.23741)" style="stroke:none" id="layer1">
		<g id="g35535">
			<path id="path2227" d="M 2206.4372,1002.1246 C 2204.9653,1016.2999 2188.4851,1086.5242 2170.6072,1117.9235 L 2234.5499,1116.945 C 2249.2471,1070.4835 2256.4632,1031.8609 2257.603,1002.1246 L 2206.4372,1002.1246 z " style="fill:#ffffff;fill-opacity:1;fill-rule:evenodd;stroke:#000000;stroke-width:2.5069778;stroke-linecap:butt;stroke-linejoin:miter;stroke-miterlimit:4;stroke-dasharray:none;stroke-opacity:1"/>
			<g transform="translate(1.5105871e-5,9.3812477e-5)" id="g20864">
				<path d="M 2003.5652,1211.8968 L 1961.5964,1280.691 C 2015.28,1301.7522 2043.0779,1301.6199 2073.2248,1298.2141 L 2070.1961,1222.4972 C 2052.9079,1224.9722 2034.4697,1226.4423 2003.5652,1211.8968 z " style="fill:#ffffff;fill-opacity:1;fill-rule:evenodd;stroke:#000000;stroke-width:4.00636673;stroke-linecap:butt;stroke-linejoin:miter;stroke-miterlimit:4;stroke-dasharray:none;stroke-opacity:1" id="path4253"/>
				<path d="M 2029.8579,1241.3898 L 2024.4732,1253.6669 L 2011.9807,1248.713 L 2004.1191,1262.9286 L 2018.3347,1267.344 L 2014.5654,1278.2211 L 2033.9503,1282.7443 L 2036.3195,1271.3287 L 2050.7505,1271.221 L 2050.6428,1257.9747 L 2039.4427,1257.4362 L 2039.7658,1243.1129 L 2029.8579,1241.3898 z " style="fill:#ffffff;fill-opacity:1;fill-rule:evenodd;stroke:#000000;stroke-width:2.5069778;stroke-linecap:butt;stroke-linejoin:miter;stroke-miterlimit:4;stroke-dasharray:none;stroke-opacity:1" id="path2285"/>
				<g transform="matrix(-1,0,0,1,4717.1319,-6.8793852)" id="g19877">
					<path d="M 2773.7126,1140.2448 C 2772.8377,1132.5898 2761.475,1126.3753 2760.3541,1137.5843 C 2757.8634,1157.3137 2744.9191,1180.5419 2728.6955,1199.0409 C 2726.7544,1200.8726 2732.0154,1215.0171 2737.0458,1209.0572 C 2755.6047,1189.4272 2773.5143,1168.7794 2773.7126,1140.2448 z " style="fill:#ffffff;fill-opacity:1;fill-rule:evenodd;stroke:#000000;stroke-width:3.99836993;stroke-linecap:butt;stroke-linejoin:miter;stroke-miterlimit:4;stroke-dasharray:none;stroke-opacity:1" id="path19879"/>
					<path d="M 2787.5913,1155.3278 C 2787.0441,1147.5798 2778.3427,1137.405 2775.2259,1151.2428 C 2769.0803,1174.1323 2755.0505,1193.3602 2737.469,1210.635 C 2733.346,1214.8239 2740.3644,1224.1601 2743.6632,1220.3563 C 2761.5553,1200.9701 2782.4378,1181.757 2787.5913,1155.3278 z " style="fill:#ffffff;fill-opacity:1;fill-rule:evenodd;stroke:#000000;stroke-width:3.99836993;stroke-linecap:butt;stroke-linejoin:miter;stroke-miterlimit:4;stroke-dasharray:none;stroke-opacity:1" id="path19881"/>
					<path d="M 2788.5378,1160.2741 C 2794.1077,1152.0841 2801.0917,1161.8235 2800.0817,1169.6135 C 2799.0371,1177.6616 2772.3374,1213.6376 2750.534,1230.6296 C 2746.0084,1234.2385 2739.2895,1225.3577 2744.4773,1220.9766 C 2761.648,1204.2552 2775.7114,1189.3742 2788.5378,1160.2741 z " style="fill:#ffffff;fill-opacity:1;fill-rule:evenodd;stroke:#000000;stroke-width:3.99836993;stroke-linecap:butt;stroke-linejoin:miter;stroke-miterlimit:4;stroke-dasharray:none;stroke-opacity:1" id="path19883"/>
					<path d="M 2798.8371,1175.8468 C 2804.1637,1166.6035 2811.4835,1177.5265 2807.0968,1185.0465 C 2797.1129,1202.6367 2786.6693,1219.8841 2758.8763,1243.1042 C 2753.8108,1248.5875 2745.5098,1237.4383 2750.6276,1231.955 C 2771.2977,1214.3015 2788.1937,1196.007 2798.8371,1175.8468 z " style="fill:#ffffff;fill-opacity:1;fill-rule:evenodd;stroke:#000000;stroke-width:3.99836993;stroke-linecap:butt;stroke-linejoin:miter;stroke-miterlimit:4;stroke-dasharray:none;stroke-opacity:1" id="path19885"/>
					<path d="M 2809.1989,1183.5671 C 2814.7344,1175.1071 2820.1609,1189.4441 2817.5498,1195.084 C 2805.1151,1217.9421 2785.8531,1237.6198 2764.8079,1254.2493 C 2760.1601,1257.6959 2753.665,1247.4432 2759.8273,1243.3699 C 2785.0099,1224.0099 2797.5753,1203.5297 2809.1989,1183.5671 z " style="fill:#ffffff;fill-opacity:1;fill-rule:evenodd;stroke:#000000;stroke-width:3.99836993;stroke-linecap:butt;stroke-linejoin:miter;stroke-miterlimit:4;stroke-dasharray:none;stroke-opacity:1" id="path19887"/>
					<path d="M 2817.9504,1196.8401 C 2822.807,1189.2679 2828.101,1200.1169 2824.9677,1207.428 C 2814.5942,1227.0484 2790.0698,1248.6355 2769.8866,1264.4216 C 2764.9255,1267.7116 2761.8117,1258.2532 2766.2506,1254.6499 C 2789.3778,1236.9301 2807.0938,1215.7047 2817.9504,1196.8401 z " style="fill:#ffffff;fill-opacity:1;fill-rule:evenodd;stroke:#000000;stroke-width:3.99836993;stroke-linecap:butt;stroke-linejoin:miter;stroke-miterlimit:4;stroke-dasharray:none;stroke-opacity:1" id="path19889"/>
					<path d="M 2826.2537,1209.06 C 2831.1103,1204.0467 2839.137,1207.8176 2835.2204,1215.8076 C 2821.9907,1238.8745 2799.6831,1259.9601 2778.7729,1276.6198 C 2773.3941,1280.8498 2766.3028,1268.9064 2772.6739,1263.8932 C 2795.4375,1247.8444 2812.6723,1229.2825 2826.2537,1209.06 z " style="fill:#ffffff;fill-opacity:1;fill-rule:evenodd;stroke:#000000;stroke-width:3.99836993;stroke-linecap:butt;stroke-linejoin:miter;stroke-miterlimit:4;stroke-dasharray:none;stroke-opacity:1" id="path19891"/>
					<path d="M 2726.5047,1202.9933 C 2722.0497,1196.9996 2709.3751,1208.4219 2712.4043,1212.3448 L 2761.7288,1290.8038 C 2765.8136,1297.1716 2779.4995,1284.1371 2774.9774,1280.0271 L 2726.5047,1202.9933 z " style="fill:#ffffff;fill-opacity:1;fill-rule:evenodd;stroke:#000000;stroke-width:3.99836993;stroke-linecap:butt;stroke-linejoin:miter;stroke-miterlimit:4;stroke-dasharray:none;stroke-opacity:1" id="path19893"/>
				</g>
			</g>
		</g>
		<g id="g16883" transform="translate(-4.8774713e-4,-4.689024e-6)">
			<path d="M 1981.8197,1001.5885 L 1993.3586,1011.8619 L 2009.6502,994.13353 L 2025.262,1007.5845 L 2010.0425,1026.3408 L 2028.0638,1041.9139 L 2047.439,1019.9303 L 2032.938,1006.844 L 2048.8758,989.61302 L 2062.686,1001.6051 L 2075.4462,988.24802 L 2092.5778,1003.7935 L 2080.3923,1016.8245 L 2094.8933,1030.2147 L 2079.2594,1048.2139 L 2064.8413,1035.1994 L 2045.2837,1056.9399 L 2062.8076,1072.6014 L 2079.4639,1055.3207 L 2095.247,1069.7719 L 2079.287,1087.3953 L 2091.5664,1098.47 L 2116.584,1070.2748 L 2101.5967,1056.6138 L 2116.2193,1040.6594 L 2131.4276,1054.0275 L 2146.5365,1036.7357 L 2036.74,940.61136 L 2021.6809,956.7205 L 2036.8395,970.52519 L 2021.8412,987.02671 L 2007.0915,973.73597 L 1981.8197,1001.5885 z " style="fill:#ffffff;fill-opacity:1;fill-rule:evenodd;stroke:#000000;stroke-width:2.5069778;stroke-linecap:butt;stroke-linejoin:miter;stroke-miterlimit:4;stroke-dasharray:none;stroke-opacity:1" id="path13960"/>
			<path id="path13962" d="M 2043.4463,911.61792 L 2026.6719,929.7043 L 2539.7946,1380.7897 C 2544.4654,1373.1572 2549.6845,1367.123 2557.3822,1363.0006 L 2043.4463,911.61792 z " style="fill:#ffffff;fill-opacity:0.99966455;fill-rule:evenodd;stroke:#000000;stroke-width:2.5069778;stroke-linecap:butt;stroke-linejoin:miter;stroke-miterlimit:4;stroke-dasharray:none;stroke-opacity:1"/>
			<path d="M 2574.7925,1374.3106 C 2575.6755,1361.3609 2571.7706,1360.3119 2559.5357,1362.7505 C 2551.379,1365.4834 2544.588,1372.5087 2540.4676,1380.7915 C 2535.2121,1392.648 2539.0871,1399.1488 2554.6436,1395.2386 C 2565.1547,1391.2024 2574.6244,1378.473 2574.7925,1374.3106 z " style="fill:#ffffff;fill-opacity:1;fill-rule:evenodd;stroke:#000000;stroke-width:2.5069778;stroke-linecap:butt;stroke-linejoin:miter;stroke-miterlimit:4;stroke-dasharray:none;stroke-opacity:1" id="path13966"/>
			<path id="path13968" d="M 2657.5398,1360.2475 C 2652.3862,1360.3455 2648.9339,1364.8641 2650.199,1376.8657 L 2574.7254,1376.9907 C 2567.8371,1389.1128 2566.7566,1389.4346 2554.5925,1395.1029 L 2556.9869,1469.2031 C 2516.9051,1467.8759 2579.2055,1530.7164 2578.3221,1490.1633 L 2655.5093,1490.6943 C 2643.8065,1546.1116 2724.7146,1458.9158 2668.9413,1477.5122 L 2668.6602,1394.9833 C 2703.8117,1399.3322 2673.0005,1359.9534 2657.5398,1360.2475 z M 2647.575,1398.6381 L 2647.8562,1468.9532 L 2578.8218,1468.3284 L 2578.6969,1398.7943 L 2647.575,1398.6381 z " style="fill:#ffffff;fill-opacity:1;fill-rule:evenodd;stroke:#000000;stroke-width:2.5069778;stroke-linecap:butt;stroke-linejoin:miter;stroke-miterlimit:4;stroke-dasharray:none;stroke-opacity:1"/>
		</g>
		<path style="opacity:1;fill:#000000;fill-rule:evenodd;stroke:none;stroke-width:0.40751868px;stroke-linecap:butt;stroke-linejoin:miter;stroke-opacity:1" d="M 698.96104,752.86271 L 699.20437,768.74333 C 718.63606,773.56021 724.05052,777.20809 725.34375,784.21875 L 731.53125,811.03125 C 735.27555,840.50148 733.00271,844.512 729.0625,863.28125 C 718.28609,863.6223 712.63704,869.55773 713.15625,884.6875 C 700.57443,907.02009 685.77394,915.73833 670.34375,920.8125 C 658.47751,925.52693 655.16766,938.61158 663.125,939.03125 C 682.4833,941.13183 678.01636,939.59599 696.40625,959 C 700.53165,963.34308 707.01206,964.91749 719.125,950.34375 C 733.91096,932.73587 729.67112,922.35616 733.0625,894 C 739.87068,894.6849 745.14364,886.67694 743.5625,872.21875 C 752.97032,851.47879 753.92872,842.30933 750.1875,810.46875 L 745.0625,784.4375 C 740.15612,769.61127 731.05063,759.99802 698.96104,752.86271 z M 674.31354,755.93083 C 658.67036,766.09807 640.28974,771.0572 629.32937,773.57583 L 628.42312,791.35042 C 649.55251,787.91621 666.59291,780.24328 675.20292,772.4375 L 674.31354,755.93083 z " transform="matrix(0.9995925,0,0,0.9995925,1880.8504,683.60056)" id="path35487"/>
		<path d="M 2341.3354,1117.3675 L 2343.6098,1115.5985 L 2344.6207,1118.1256 L 2341.3354,1117.3675 z " style="fill:#ffffff;fill-opacity:1;fill-rule:evenodd;stroke:none;stroke-width:0.40751868px;stroke-linecap:butt;stroke-linejoin:miter;stroke-opacity:1" id="path2214"/>
		<g id="g35520">
			<path style="fill:#ffffff;fill-opacity:1;fill-rule:evenodd;stroke:#000000;stroke-width:2.5069778;stroke-linecap:butt;stroke-linejoin:miter;stroke-miterlimit:4;stroke-dasharray:none;stroke-opacity:1" d="M 2376.496,1002.9873 C 2377.9679,1017.1626 2394.0412,1086.1663 2411.9191,1117.5656 L 2347.9764,1116.5871 C 2333.2792,1070.1257 2326.0631,1032.7236 2324.9233,1002.9873 L 2376.496,1002.9873 z " id="path23814"/>
			<g transform="translate(3.1593868e-4,4.5030234e-4)" id="g21854">
				<g id="g19867" transform="translate(-134.59239,-5.8198172)">
					<path id="path4255" style="fill:#ffffff;fill-opacity:1;fill-rule:evenodd;stroke:#000000;stroke-width:3.99836993;stroke-linecap:butt;stroke-linejoin:miter;stroke-miterlimit:4;stroke-dasharray:none;stroke-opacity:1" d="M 2773.7126,1140.2448 C 2772.8377,1132.5898 2761.475,1126.3753 2760.3541,1137.5843 C 2757.8634,1157.3137 2744.9191,1180.5419 2728.6955,1199.0409 C 2726.7544,1200.8726 2732.0154,1215.0171 2737.0458,1209.0572 C 2755.6047,1189.4272 2773.5143,1168.7794 2773.7126,1140.2448 z "/>
					<path id="path4257" style="fill:#ffffff;fill-opacity:1;fill-rule:evenodd;stroke:#000000;stroke-width:3.99836993;stroke-linecap:butt;stroke-linejoin:miter;stroke-miterlimit:4;stroke-dasharray:none;stroke-opacity:1" d="M 2787.5913,1155.3278 C 2787.0441,1147.5798 2778.3427,1137.405 2775.2259,1151.2428 C 2769.0803,1174.1323 2755.0505,1193.3602 2737.469,1210.635 C 2733.346,1214.8239 2740.3644,1224.1601 2743.6632,1220.3563 C 2761.5553,1200.9701 2782.4378,1181.757 2787.5913,1155.3278 z "/>
					<path id="path4259" style="fill:#ffffff;fill-opacity:1;fill-rule:evenodd;stroke:#000000;stroke-width:3.99836993;stroke-linecap:butt;stroke-linejoin:miter;stroke-miterlimit:4;stroke-dasharray:none;stroke-opacity:1" d="M 2788.5378,1160.2741 C 2794.1077,1152.0841 2801.0917,1161.8235 2800.0817,1169.6135 C 2799.0371,1177.6616 2772.3374,1213.6376 2750.534,1230.6296 C 2746.0084,1234.2385 2739.2895,1225.3577 2744.4773,1220.9766 C 2761.648,1204.2552 2775.7114,1189.3742 2788.5378,1160.2741 z "/>
					<path id="path4261" style="fill:#ffffff;fill-opacity:1;fill-rule:evenodd;stroke:#000000;stroke-width:3.99836993;stroke-linecap:butt;stroke-linejoin:miter;stroke-miterlimit:4;stroke-dasharray:none;stroke-opacity:1" d="M 2798.8371,1175.8468 C 2804.1637,1166.6035 2811.4835,1177.5265 2807.0968,1185.0465 C 2797.1129,1202.6367 2786.6693,1219.8841 2758.8763,1243.1042 C 2753.8108,1248.5875 2745.5098,1237.4383 2750.6276,1231.955 C 2771.2977,1214.3015 2788.1937,1196.007 2798.8371,1175.8468 z "/>
					<path id="path4263" style="fill:#ffffff;fill-opacity:1;fill-rule:evenodd;stroke:#000000;stroke-width:3.99836993;stroke-linecap:butt;stroke-linejoin:miter;stroke-miterlimit:4;stroke-dasharray:none;stroke-opacity:1" d="M 2809.1989,1183.5671 C 2814.7344,1175.1071 2820.1609,1189.4441 2817.5498,1195.084 C 2805.1151,1217.9421 2785.8531,1237.6198 2764.8079,1254.2493 C 2760.1601,1257.6959 2753.665,1247.4432 2759.8273,1243.3699 C 2785.0099,1224.0099 2797.5753,1203.5297 2809.1989,1183.5671 z "/>
					<path id="path4265" style="fill:#ffffff;fill-opacity:1;fill-rule:evenodd;stroke:#000000;stroke-width:3.99836993;stroke-linecap:butt;stroke-linejoin:miter;stroke-miterlimit:4;stroke-dasharray:none;stroke-opacity:1" d="M 2817.9504,1196.8401 C 2822.807,1189.2679 2828.101,1200.1169 2824.9677,1207.428 C 2814.5942,1227.0484 2790.0698,1248.6355 2769.8866,1264.4216 C 2764.9255,1267.7116 2761.8117,1258.2532 2766.2506,1254.6499 C 2789.3778,1236.9301 2807.0938,1215.7047 2817.9504,1196.8401 z "/>
					<path id="path4267" style="fill:#ffffff;fill-opacity:1;fill-rule:evenodd;stroke:#000000;stroke-width:3.99836993;stroke-linecap:butt;stroke-linejoin:miter;stroke-miterlimit:4;stroke-dasharray:none;stroke-opacity:1" d="M 2826.2537,1209.06 C 2831.1103,1204.0467 2839.137,1207.8176 2835.2204,1215.8076 C 2821.9907,1238.8745 2799.6831,1259.9601 2778.7729,1276.6198 C 2773.3941,1280.8498 2766.3028,1268.9064 2772.6739,1263.8932 C 2795.4375,1247.8444 2812.6723,1229.2825 2826.2537,1209.06 z "/>
					<path id="path4269" style="fill:#ffffff;fill-opacity:1;fill-rule:evenodd;stroke:#000000;stroke-width:3.99836993;stroke-linecap:butt;stroke-linejoin:miter;stroke-miterlimit:4;stroke-dasharray:none;stroke-opacity:1" d="M 2726.5047,1202.9933 C 2722.0497,1196.9996 2709.3751,1208.4219 2712.4043,1212.3448 L 2761.7288,1290.8038 C 2765.8136,1297.1716 2779.4995,1284.1371 2774.9774,1280.0271 L 2726.5047,1202.9933 z "/>
				</g>
				<path d="M 2580.2898,1212.3348 L 2621.9152,1280.2705 C 2571.4939,1300.8166 2545.9281,1302.4012 2515.7812,1300.1974 L 2517.093,1223.2786 C 2534.5528,1224.5517 2549.3853,1226.8803 2580.2898,1212.3348 z " style="fill:#ffffff;fill-opacity:1;fill-rule:evenodd;stroke:#000000;stroke-width:4.00636673;stroke-linecap:butt;stroke-linejoin:miter;stroke-miterlimit:4;stroke-dasharray:none;stroke-opacity:1" id="path4271"/>
				<path d="M 2557.2156,1237.9365 L 2562.6003,1250.2136 L 2575.0928,1245.2597 L 2582.9545,1259.4753 L 2568.7389,1263.8908 L 2572.5082,1274.7679 L 2553.1233,1279.291 L 2550.754,1267.8755 L 2536.323,1267.7677 L 2536.4307,1254.5214 L 2547.6309,1253.9829 L 2547.3078,1239.6596 L 2557.2156,1237.9365 z " style="fill:#ffffff;fill-opacity:1;fill-rule:evenodd;stroke:#000000;stroke-width:2.5069778;stroke-linecap:butt;stroke-linejoin:miter;stroke-miterlimit:4;stroke-dasharray:none;stroke-opacity:1" id="path4275"/>
			</g>
		</g>
		<g id="g17876" transform="translate(-870.53356,81.063486)">
			<g id="g30614">
				<path style="fill:#ffffff;fill-opacity:1;fill-rule:evenodd;stroke:#000000;stroke-width:2.5079999;stroke-linecap:butt;stroke-linejoin:miter;stroke-miterlimit:4;stroke-dasharray:none;stroke-opacity:1" d="M 1520.3438,136.75 L 1023.6857,608.83718 C 1031.7028,612.32879 1035.9146,616.36467 1040.1129,624.47478 L 1536.8125,154.375 L 1520.3438,136.75 z " transform="matrix(0.9995925,0,0,0.9995925,1880.8504,683.60056)" id="path12287"/>
				<path d="M 3300.9427,949.27383 L 3317.106,965.81283 L 3332.0551,951.75773 L 3346.6499,967.53613 L 3331.7523,981.28443 L 3358.0572,1009.0839 L 3369.8057,997.40803 L 3352.7404,979.82033 L 3368.8944,964.95313 L 3386.0986,982.09643 L 3402.9655,965.33273 L 3381.9087,944.87233 L 3369.0412,956.91443 L 3352.2867,940.22473 L 3366.3894,926.80453 L 3353.8633,914.13154 L 3370.1773,898.23672 L 3383.0448,911.26815 L 3396.9875,898.64275 L 3412.783,914.65 L 3398.81,928.62303 L 3419.9145,949.56753 L 3437.5286,933.07623 L 3420.5969,916.0321 L 3436.2153,901.37257 L 3452.8058,918.25266 L 3464.3044,907.90746 L 3437.2046,880.20328 L 3422.7739,893.69232 L 3407.6646,878.28553 L 3422.385,864.55446 L 3406.4638,849.16883 L 3300.9427,949.27383 z " style="fill:#ffffff;fill-opacity:1;fill-rule:evenodd;stroke:#000000;stroke-width:2.5069778;stroke-linecap:butt;stroke-linejoin:miter;stroke-miterlimit:4;stroke-dasharray:none;stroke-opacity:1" id="path16185"/>
				<path d="M 2888.1672,1304.5961 C 2887.2843,1291.6464 2889.9331,1289.0396 2902.1681,1291.4782 C 2910.3247,1294.2111 2916.4632,1300.0973 2920.5836,1308.3801 C 2925.8391,1320.2366 2922.013,1326.6695 2906.4566,1322.7593 C 2895.9455,1318.7231 2888.3354,1308.7585 2888.1672,1304.5961 z " style="fill:#ffffff;fill-opacity:1;fill-rule:evenodd;stroke:#000000;stroke-width:2.5069778;stroke-linecap:butt;stroke-linejoin:miter;stroke-miterlimit:4;stroke-dasharray:none;stroke-opacity:1" id="path5250"/>
				<path style="fill:#ffffff;fill-opacity:1;fill-rule:evenodd;stroke:#000000;stroke-width:2.5079999;stroke-linecap:butt;stroke-linejoin:miter;stroke-miterlimit:4;stroke-dasharray:none;stroke-opacity:1" d="M 923.5,608.28125 C 908.6889,609.12984 878.93594,647.4991 914.375,645.125 L 916.5,725.9375 C 863.59574,717.42243 943.59824,793.11992 931.25,738.78125 L 1007.5,736.59375 C 1007.9858,773.73909 1068.2544,713.26614 1028.1563,714.59375 L 1025.8438,639.88578 C 1013.6748,634.21517 1015.274,634.18352 1007.6455,623.28545 L 929.9375,625.8125 C 932.2827,612.60077 928.85721,607.97431 923.5,608.28125 z M 1004.7188,644.8125 L 1005.7813,715.375 L 936.125,717.15625 L 934.25,646.125 L 1004.7188,644.8125 z " transform="matrix(0.9995925,0,0,0.9995925,1880.8504,683.60056)" id="path9164"/>
			</g>
		</g>
		<g id="g7167" transform="translate(653.83868,1.0601285)">
			<g id="g7172" transform="translate(-654.13815,-1.0601915)">
				<path style="fill:#ffffff;fill-opacity:1;fill-rule:evenodd;stroke:#000000;stroke-width:3.99836969;stroke-linecap:butt;stroke-linejoin:miter;stroke-miterlimit:4;stroke-dasharray:none;stroke-opacity:1" d="M 2051.4994,1117.6582 C 2053.0714,1135.9615 2066.4779,1156.307 2070.0231,1196.3449 L 2080.9561,1378.4581 C 2087.6732,1463.4267 2093.0866,1559.8088 2095.2316,1573.5036 C 2103.2764,1608.243 2133.9677,1636.5354 2200.1944,1653.3401 L 2290.7144,1678.7419 C 2325.954,1659.5658 2347.7992,1665.5888 2415.2886,1643.1315 C 2450.9079,1629.0775 2491.8791,1611.8022 2503.4402,1562.9454 C 2507.004,1545.7052 2507.5698,1475.274 2510.656,1378.4581 C 2510.656,1378.4581 2514.4346,1224.3991 2516.2162,1196.1262 C 2518.7745,1155.9822 2528.5902,1135.9329 2531.6786,1117.6582 L 2051.4994,1117.6582 z " id="path4409"/>
				<path d="M 2205.9592,1117.6277 L 2288.5086,1117.4044 L 2288.2596,1295.1344 L 2513.1972,1295.1579 C 2512.3396,1323.033 2511.4022,1350.4532 2510.7713,1377.9412 L 2288.1849,1377.7137 L 2288.3699,1678.447 C 2265.1168,1670.9861 2249.5622,1665.5452 2206.459,1654.7737 L 2205.9226,1377.7116 L 2081.232,1376.9077 L 2075.4376,1295.1253 L 2205.9668,1295.3054 L 2205.9592,1117.6277 z " style="fill:#ffffff;fill-opacity:1;fill-rule:evenodd;stroke:#000000;stroke-width:3.99836993;stroke-linecap:butt;stroke-linejoin:miter;stroke-miterlimit:4;stroke-dasharray:none;stroke-opacity:1" id="path2229"/>
				<path d="M 2344.0777,1628.5099 L 2332.959,1628.5458 L 2332.959,1413.5282 L 2344.9483,1413.4922 L 2386.5962,1497.0249 L 2434.7808,1413.4054 L 2445.903,1413.4638 L 2445.9535,1588.2591 L 2434.8472,1588.2512 L 2434.8527,1438.2131 L 2391.0406,1514.8308 L 2382.2703,1514.8703 L 2344.102,1440.8859 L 2344.0777,1628.5099 z " style="fill:#ffffff;fill-opacity:1;fill-rule:evenodd;stroke:#000000;stroke-width:4.00636673;stroke-linecap:butt;stroke-linejoin:miter;stroke-miterlimit:4;stroke-dasharray:none;stroke-opacity:1" id="path2231"/>
			</g>
		</g>
		<path d="M 2518.2134,1456.2648 C 2516.0256,1457.3587 2513.2909,1457.4681 2510.9937,1461.0232 C 2508.8971,1464.5419 2510.465,1469.3732 2508.5872,1473.1653 C 2513.7285,1472.1443 2516.9007,1467.8417 2516.6819,1465.7816 C 2516.5574,1462.821 2517.0255,1459.6629 2518.2134,1456.2648 z " style="fill:#ffffff;fill-opacity:1;fill-rule:evenodd;stroke:none;stroke-width:0.40751868px;stroke-linecap:butt;stroke-linejoin:miter;stroke-opacity:1" id="path14175"/>
		<path d="M 2527.1474,1454.3674 C 2524.9596,1455.4613 2522.2249,1455.5707 2519.9278,1459.1259 C 2517.8311,1462.6445 2519.399,1467.4758 2517.5212,1471.2679 C 2522.6625,1470.247 2526.1691,1465.9443 2525.9503,1463.8842 C 2525.8258,1460.9236 2525.9595,1457.7655 2527.1474,1454.3674 z " style="fill:#ffffff;fill-opacity:1;fill-rule:evenodd;stroke:none;stroke-width:0.40751868px;stroke-linecap:butt;stroke-linejoin:miter;stroke-opacity:1" id="path14177"/>
		<path d="M 2536.3738,1451.4305 C 2533.7681,1452.0229 2530.6991,1452.3831 2528.7363,1456.189 C 2526.6397,1459.7076 2528.6255,1464.5389 2526.7477,1468.331 C 2531.8889,1467.3101 2535.897,1463.5089 2535.6782,1461.4488 C 2535.9716,1458.4882 2536.3561,1454.9957 2536.3738,1451.4305 z " style="fill:#ffffff;fill-opacity:1;fill-rule:evenodd;stroke:none;stroke-width:0.40751868px;stroke-linecap:butt;stroke-linejoin:miter;stroke-opacity:1" id="path14179"/>
		<path d="M 2554.3692,1441.5341 C 2551.7634,1442.1265 2550.2269,1443.0301 2548.2641,1446.836 C 2546.1675,1450.3547 2547.443,1456.4689 2546.7521,1460.1483 C 2551.6303,1457.4936 2553.2241,1455.0467 2554.321,1452.7986 L 2554.3692,1441.5341 z " style="fill:#ffffff;fill-opacity:1;fill-rule:evenodd;stroke:none;stroke-width:0.40751868px;stroke-linecap:butt;stroke-linejoin:miter;stroke-opacity:1" id="path14181"/>
		<path d="M 2594.461,1441.2176 C 2591.5771,1440.0855 2583.5281,1438.4854 2580.5083,1438.1191 L 2580.3034,1449.8317 C 2588.1887,1447.2563 2590.5082,1443.4549 2594.461,1441.2176 z " style="fill:#ffffff;fill-opacity:1;fill-rule:evenodd;stroke:none;stroke-width:0.40751868px;stroke-linecap:butt;stroke-linejoin:miter;stroke-opacity:1" id="path14185"/>
		<path d="M 2606.5212,1446.8475 C 2604.3421,1445.3008 2600.0616,1442.2427 2595.9165,1443.3178 C 2591.8963,1444.1018 2588.7222,1448.8619 2583.9782,1450.9321 C 2589.0986,1452.485 2590.8144,1453.6664 2593.5388,1452.2409 C 2597.6348,1450.1666 2601.7264,1448.9008 2606.5212,1446.8475 z " style="fill:#ffffff;fill-opacity:1;fill-rule:evenodd;stroke:none;stroke-width:0.40751868px;stroke-linecap:butt;stroke-linejoin:miter;stroke-opacity:1" id="path14187"/>
		<path d="M 2616.5394,1454.2169 C 2614.3604,1452.6701 2611.6374,1446.8305 2603.0976,1450.409 C 2597.2973,1452.6949 2597.3263,1452.9529 2593.1386,1454.5782 C 2600.405,1457.505 2598.7187,1458.9774 2603.6127,1458.3307 C 2608.7656,1457.7584 2611.7446,1456.2701 2616.5394,1454.2169 z " style="fill:#ffffff;fill-opacity:1;fill-rule:evenodd;stroke:none;stroke-width:0.40751868px;stroke-linecap:butt;stroke-linejoin:miter;stroke-opacity:1" id="path14189"/>
		<path d="M 2622.3838,1465.3358 C 2621.5955,1462.2871 2620.5517,1454.672 2612.3175,1457.7583 C 2606.7396,1459.4322 2607.5407,1458.3429 2603.3531,1459.9681 C 2607.3929,1462.1161 2606.677,1464.5891 2610.1246,1464.6099 C 2615.2775,1464.0376 2617.3109,1463.6619 2622.3838,1465.3358 z " style="fill:#ffffff;fill-opacity:1;fill-rule:evenodd;stroke:none;stroke-width:0.40751868px;stroke-linecap:butt;stroke-linejoin:miter;stroke-opacity:1" id="path14191"/>
		<path d="M 2625.507,1475.6295 C 2624.7187,1472.5807 2624.5273,1467.0343 2617.0523,1466.5879 C 2611.2336,1466.7365 2612.449,1465.8171 2606.5352,1465.1542 C 2609.4912,1468.3058 2610.4023,1474.3207 2613.85,1474.3416 C 2619.0028,1473.7692 2620.434,1473.9556 2625.507,1475.6295 z " style="fill:#ffffff;fill-opacity:1;fill-rule:evenodd;stroke:none;stroke-width:0.40751868px;stroke-linecap:butt;stroke-linejoin:miter;stroke-opacity:1" id="path14193"/>
		<path d="M 2628.442,1486.1958 C 2627.6537,1483.1471 2627.101,1476.7977 2619.1844,1476.4719 C 2613.3657,1476.6204 2615.5317,1476.7874 2609.6178,1476.1244 C 2612.5739,1479.276 2612.414,1484.3251 2615.9821,1484.2255 C 2620.5744,1484.2647 2621.6969,1486.346 2628.442,1486.1958 z " style="fill:#ffffff;fill-opacity:1;fill-rule:evenodd;stroke:none;stroke-width:0.40751868px;stroke-linecap:butt;stroke-linejoin:miter;stroke-opacity:1" id="path14195"/>
		<path d="M 2629.736,1497.9397 C 2628.9477,1494.8909 2630.6831,1488.662 2622.7666,1488.3362 C 2616.9478,1488.4847 2618.7124,1487.2868 2612.8387,1486.1422 C 2614.47,1491.341 2614.7517,1493.861 2619.2029,1494.9256 C 2622.1494,1495.7275 2625.8411,1498.0095 2629.736,1497.9397 z " style="fill:#ffffff;fill-opacity:1;fill-rule:evenodd;stroke:none;stroke-width:0.40751868px;stroke-linecap:butt;stroke-linejoin:miter;stroke-opacity:1" id="path14197"/>
		<path d="M 2630.7371,1507.9832 C 2629.9488,1504.9344 2631.4032,1500.5521 2623.7275,1498.8614 C 2618.3504,1497.2838 2619.3121,1496.8486 2613.4785,1495.1018 C 2615.1099,1500.3007 2615.7528,1503.9045 2620.204,1504.9691 C 2623.1505,1505.771 2626.8422,1508.053 2630.7371,1507.9832 z " style="fill:#ffffff;fill-opacity:1;fill-rule:evenodd;stroke:none;stroke-width:0.40751868px;stroke-linecap:butt;stroke-linejoin:miter;stroke-opacity:1" id="path14199"/>
		<path d="M 2631.0636,1518.8205 C 2630.2753,1515.7718 2632.4087,1510.3031 2624.733,1508.6124 C 2619.3559,1507.0348 2620.3175,1505.7848 2614.484,1504.0381 C 2616.1153,1509.237 2616.7583,1513.6556 2621.2095,1514.7201 C 2624.156,1515.522 2627.1687,1518.8904 2631.0636,1518.8205 z " style="fill:#ffffff;fill-opacity:1;fill-rule:evenodd;stroke:none;stroke-width:0.40751868px;stroke-linecap:butt;stroke-linejoin:miter;stroke-opacity:1" id="path14201"/>
		<path d="M 2630.7205,1530.1585 C 2630.7351,1527.3507 2632.7114,1521.3225 2626.0392,1519.8325 C 2620.662,1518.2549 2621.1822,1516.6011 2616.4726,1513.3289 C 2616.6103,1518.5278 2615.1257,1519.6913 2620.7093,1523.5718 C 2623.6558,1524.3737 2627.0664,1528.3818 2630.7205,1530.1585 z " style="fill:#ffffff;fill-opacity:1;fill-rule:evenodd;stroke:none;stroke-width:0.40751868px;stroke-linecap:butt;stroke-linejoin:miter;stroke-opacity:1" id="path14203"/>
		<path d="M 2628.7028,1540.8242 C 2628.7174,1538.0163 2631.2557,1532.9516 2624.9047,1529.5748 C 2620.6516,1525.9098 2620.3322,1525.5371 2615.6226,1522.2649 C 2617.2539,1527.4638 2615.3243,1529.56 2619.4142,1533.0332 C 2621.598,1535.1197 2625.0488,1539.0475 2628.7028,1540.8242 z " style="fill:#ffffff;fill-opacity:1;fill-rule:evenodd;stroke:none;stroke-width:0.40751868px;stroke-linecap:butt;stroke-linejoin:miter;stroke-opacity:1" id="path14205"/>
		<g id="g37557">
			<path id="path2221" transform="matrix(0.9995925,0,0,0.9995925,1880.8504,683.60056)" d="M 133.2543,757.63618 C 99.74315,762.70564 92.72465,776.70415 86.34375,794.5 L 80.84375,822.03125 C 76.610521,849.43722 81.629266,862.98259 86.375,875.15625 C 85.176612,889.99979 85.729588,894.7194 94.46875,897.53125 C 93.506661,925.09839 96.179797,938.58186 102.8125,950.09375 C 112.15381,966.16209 121.12757,969.90561 128.3125,963 C 146.32814,948.29731 142.0232,946.70524 161.78125,945.875 C 168.92186,945.60111 168.02457,936.22662 158.65625,930.40625 C 141.31968,921.15158 124.35992,909.79001 115.34375,888.78125 C 116.17369,870.78002 108.24857,866.47141 100.59375,866.6875 C 97.334721,840.68139 98.977878,827.71714 100.75,821 L 105.8125,793.625 C 107.10553,786.61395 114.04352,777.63135 133.47534,772.81479 L 133.2543,757.63618 z M 157.46703,778.43979 C 170.43581,787.85914 189.65567,792.24193 205.6875,796.71875 L 204.27666,777.59375 C 193.31639,776.34073 176.79966,770.74351 157.04501,759.78584 L 157.46703,778.43979 z " style="opacity:1;fill:#000000;fill-rule:evenodd;stroke:none;stroke-width:0.40751868px;stroke-linecap:butt;stroke-linejoin:miter;stroke-opacity:1"/>
			<path id="path9154" style="fill:#ffffff;fill-opacity:1;fill-rule:evenodd;stroke:none;stroke-width:0.40751868px;stroke-linecap:butt;stroke-linejoin:miter;stroke-opacity:1" d="M 2078.5918,1462.2034 C 2080.7796,1463.2973 2083.8424,1462.641 2085.1551,1465.4851 L 2086.0302,1478.2288 C 2082.4751,1475.9499 2079.9044,1473.7803 2080.1232,1471.7202 C 2080.2477,1468.7596 2079.7797,1465.6015 2078.5918,1462.2034 z "/>
			<path id="path9156" style="fill:#ffffff;fill-opacity:1;fill-rule:evenodd;stroke:none;stroke-width:0.40751868px;stroke-linecap:butt;stroke-linejoin:miter;stroke-opacity:1" d="M 2069.5672,1459.0038 C 2071.755,1460.0977 2074.4897,1460.2071 2076.7869,1463.7622 C 2078.8835,1467.2809 2077.3156,1472.1122 2079.1934,1475.9043 C 2074.0522,1474.8833 2070.8799,1470.5807 2071.0987,1468.5206 C 2071.2232,1465.56 2070.7551,1462.4019 2069.5672,1459.0038 z "/>
			<path id="path9158" style="fill:#ffffff;fill-opacity:1;fill-rule:evenodd;stroke:none;stroke-width:0.40751868px;stroke-linecap:butt;stroke-linejoin:miter;stroke-opacity:1" d="M 2060.2145,1456.2691 C 2062.4023,1457.363 2065.137,1457.4724 2067.4342,1461.0275 C 2069.5308,1464.5461 2067.9629,1469.3774 2069.8407,1473.1696 C 2064.6995,1472.1486 2061.1929,1467.846 2061.4117,1465.7859 C 2061.5362,1462.8252 2061.4024,1459.6671 2060.2145,1456.2691 z "/>
			<path id="path9160" style="fill:#ffffff;fill-opacity:1;fill-rule:evenodd;stroke:none;stroke-width:0.40751868px;stroke-linecap:butt;stroke-linejoin:miter;stroke-opacity:1" d="M 2050.9881,1452.9135 C 2053.5938,1453.5059 2056.6628,1453.866 2058.6257,1457.6719 C 2060.7223,1461.1906 2058.7365,1466.0219 2060.6143,1469.814 C 2055.473,1468.793 2051.4649,1464.9919 2051.6837,1462.9318 C 2051.3903,1459.9711 2051.0058,1456.4787 2050.9881,1452.9135 z "/>
			<path id="path9162" style="fill:#ffffff;fill-opacity:1;fill-rule:evenodd;stroke:none;stroke-width:0.40751868px;stroke-linecap:butt;stroke-linejoin:miter;stroke-opacity:1" d="M 2039.8714,1446.2268 C 2042.4771,1446.8192 2046.382,1448.0987 2048.3448,1451.9046 C 2050.4414,1455.4233 2048.7899,1461.4248 2049.3304,1465.2169 C 2044.1892,1463.2765 2040.2647,1460.9799 2040.4834,1458.9198 L 2039.8714,1446.2268 z "/>
			<path id="path9298" style="fill:#ffffff;fill-opacity:1;fill-rule:evenodd;stroke:none;stroke-width:0.40751868px;stroke-linecap:butt;stroke-linejoin:miter;stroke-opacity:1" d="M 2001.6594,1445.4843 C 2004.5432,1444.3522 2010.2839,1443.2952 2013.3036,1442.9289 L 2013.5086,1454.5057 C 2005.6232,1451.9303 2005.6121,1447.7215 2001.6594,1445.4843 z "/>
			<path id="path9300" style="fill:#ffffff;fill-opacity:1;fill-rule:evenodd;stroke:none;stroke-width:0.40751868px;stroke-linecap:butt;stroke-linejoin:miter;stroke-opacity:1" d="M 1989.3276,1450.4352 C 1991.5066,1448.8885 1995.7872,1445.8304 1999.9322,1446.9055 C 2003.9525,1447.6894 2005.3614,1453.2643 2010.1053,1455.3346 C 2004.9849,1456.8874 2005.0344,1457.2541 2002.3099,1455.8285 C 1998.214,1453.7542 1994.1224,1452.4885 1989.3276,1450.4352 z "/>
			<path id="path9302" style="fill:#ffffff;fill-opacity:1;fill-rule:evenodd;stroke:none;stroke-width:0.40751868px;stroke-linecap:butt;stroke-linejoin:miter;stroke-opacity:1" d="M 1979.8525,1457.6687 C 1982.0315,1456.122 1984.7545,1450.2824 1993.2943,1453.8609 C 1999.0946,1456.1468 1999.0656,1456.4048 2003.2533,1458.03 C 1995.9869,1460.9569 1997.6732,1462.4293 1992.7792,1461.7826 C 1987.6263,1461.2103 1984.6473,1459.722 1979.8525,1457.6687 z "/>
			<path id="path10273" style="fill:#ffffff;fill-opacity:1;fill-rule:evenodd;stroke:none;stroke-width:0.40751868px;stroke-linecap:butt;stroke-linejoin:miter;stroke-opacity:1" d="M 1973.8723,1468.1088 C 1974.6606,1465.06 1975.976,1457.9881 1983.5313,1461.0744 C 1989.1091,1462.7483 1988.308,1462.4737 1992.4957,1464.0989 C 1988.4558,1466.247 1989.5791,1467.362 1986.1315,1467.3828 C 1980.9786,1466.8105 1978.9453,1466.4348 1973.8723,1468.1088 z "/>
			<path id="path12213" style="fill:#ffffff;fill-opacity:1;fill-rule:evenodd;stroke:none;stroke-width:0.40751868px;stroke-linecap:butt;stroke-linejoin:miter;stroke-opacity:1" d="M 1970.206,1478.1309 C 1970.9943,1475.0821 1971.1857,1469.5356 1978.6607,1469.0893 C 1984.4794,1469.2379 1982.3135,1469.4048 1988.2273,1468.7419 C 1985.2712,1471.8935 1985.3107,1476.8221 1981.863,1476.8429 C 1976.7101,1476.2706 1975.279,1476.4569 1970.206,1478.1309 z "/>
			<path id="path12215" style="fill:#ffffff;fill-opacity:1;fill-rule:evenodd;stroke:none;stroke-width:0.40751868px;stroke-linecap:butt;stroke-linejoin:miter;stroke-opacity:1" d="M 1966.9994,1488.6972 C 1967.7877,1485.6485 1968.3404,1479.2991 1976.257,1478.9732 C 1982.0757,1479.1218 1979.9097,1479.2887 1985.8235,1478.6258 C 1982.8675,1481.7774 1983.0274,1486.8265 1979.4593,1486.7269 C 1974.867,1486.7661 1973.7444,1488.8473 1966.9994,1488.6972 z "/>
			<path id="path12217" style="fill:#ffffff;fill-opacity:1;fill-rule:evenodd;stroke:none;stroke-width:0.40751868px;stroke-linecap:butt;stroke-linejoin:miter;stroke-opacity:1" d="M 1965.4339,1500.0336 C 1966.2221,1496.9849 1964.4867,1490.756 1972.4033,1490.4301 C 1978.222,1490.5787 1976.4575,1489.3808 1982.3311,1488.2361 C 1980.6998,1493.435 1980.4181,1495.955 1975.9669,1497.0196 C 1973.0204,1497.8215 1969.3287,1500.1035 1965.4339,1500.0336 z "/>
			<path id="path12219" style="fill:#ffffff;fill-opacity:1;fill-rule:evenodd;stroke:none;stroke-width:0.40751868px;stroke-linecap:butt;stroke-linejoin:miter;stroke-opacity:1" d="M 1963.3464,1510.2129 C 1964.1347,1507.1642 1962.6803,1502.7819 1970.356,1501.0912 C 1975.7331,1499.5135 1974.7715,1499.0783 1980.605,1497.3316 C 1978.9737,1502.5305 1978.3307,1506.1343 1973.8795,1507.1989 C 1970.933,1508.0008 1967.2413,1510.2828 1963.3464,1510.2129 z "/>
			<path id="path12221" style="fill:#ffffff;fill-opacity:1;fill-rule:evenodd;stroke:none;stroke-width:0.40751868px;stroke-linecap:butt;stroke-linejoin:miter;stroke-opacity:1" d="M 1962.0694,1520.0997 C 1962.8577,1517.051 1961.4032,1512.6687 1969.079,1510.978 C 1974.4561,1509.4003 1973.4944,1508.9652 1979.3279,1507.2184 C 1977.6966,1512.4173 1977.0536,1516.0211 1972.6024,1517.0857 C 1969.6559,1517.8876 1965.9643,1520.1696 1962.0694,1520.0997 z "/>
			<path id="path12223" style="fill:#ffffff;fill-opacity:1;fill-rule:evenodd;stroke:none;stroke-width:0.40751868px;stroke-linecap:butt;stroke-linejoin:miter;stroke-opacity:1" d="M 1962.6841,1531.7094 C 1962.6695,1528.9015 1960.6932,1522.8734 1967.3654,1521.3833 C 1972.7425,1519.8057 1972.2224,1520.053 1976.9319,1516.7808 C 1975.3006,1521.9797 1976.7852,1521.6495 1972.6952,1525.1227 C 1969.7488,1525.9246 1966.3381,1529.9327 1962.6841,1531.7094 z "/>
			<path id="path13194" style="fill:#ffffff;fill-opacity:1;fill-rule:evenodd;stroke:none;stroke-width:0.40751868px;stroke-linecap:butt;stroke-linejoin:miter;stroke-opacity:1" d="M 1964.1586,1542.2393 C 1964.144,1539.4314 1961.6057,1534.3666 1967.9567,1530.9899 C 1972.2099,1527.3249 1971.8503,1528.1742 1976.5599,1524.9021 C 1974.9285,1530.1009 1977.5371,1530.9751 1973.4472,1534.4482 C 1971.2634,1536.5347 1967.8126,1540.4626 1964.1586,1542.2393 z "/>
			<path id="path14207" style="fill:#ffffff;fill-opacity:1;fill-rule:evenodd;stroke:none;stroke-width:0.40751868px;stroke-linecap:butt;stroke-linejoin:miter;stroke-opacity:1" d="M 1966.1461,1552.1522 C 1966.1315,1549.3444 1963.4431,1545.18 1969.7191,1540.4527 C 1974.7226,1536.1874 1976.3889,1534.3356 1977.2718,1531.4385 C 1977.8915,1537.0877 1979.2995,1540.4379 1975.2096,1543.911 C 1973.0258,1545.9975 1969.8001,1550.3755 1966.1461,1552.1522 z "/>
			<path id="path14209" style="fill:#ffffff;fill-opacity:1;fill-rule:evenodd;stroke:none;stroke-width:0.40751868px;stroke-linecap:butt;stroke-linejoin:miter;stroke-opacity:1" d="M 1968.322,1556.8793 C 1968.3075,1554.0714 1967.3449,1553.4336 1972.6454,1548.4062 C 1976.8985,1544.7412 1975.4135,1544.6901 1978.0972,1543.2938 C 1979.017,1546.992 1981.3254,1547.566 1977.2355,1551.0391 C 1975.0517,1553.1256 1971.9761,1555.1026 1968.322,1556.8793 z "/>
			<path id="path2280" style="fill:#ffffff;fill-opacity:1;fill-rule:evenodd;stroke:none;stroke-width:0.40751868px;stroke-linecap:butt;stroke-linejoin:miter;stroke-opacity:1" d="M 1976.2933,1555.7624 L 1989.4298,1555.3567 C 1984.798,1550.4601 1977.6946,1551.9076 1976.2933,1555.7624 z "/>
			<path id="path2282" style="fill:#ffffff;fill-opacity:1;fill-rule:evenodd;stroke:none;stroke-width:0.40751868px;stroke-linecap:butt;stroke-linejoin:miter;stroke-opacity:1" d="M 1975.7802,1556.7836 C 1976.205,1559.5683 1970.928,1565.506 1968.1449,1566.8648 C 1966.8878,1560.1224 1972.3657,1554.0389 1975.7802,1556.7836 z "/>
			<path id="path2284" style="fill:#ffffff;fill-opacity:1;fill-rule:evenodd;stroke:none;stroke-width:0.40751868px;stroke-linecap:butt;stroke-linejoin:miter;stroke-opacity:1" d="M 1970.3854,1575.8269 C 1966.4475,1568.0869 1975.5454,1561.0599 1976.2922,1562.9948 C 1974.6288,1567.2722 1972.0488,1571.5495 1970.3854,1575.8269 z "/>
			<path id="path2286" style="fill:#ffffff;fill-opacity:1;fill-rule:evenodd;stroke:none;stroke-width:0.40751868px;stroke-linecap:butt;stroke-linejoin:miter;stroke-opacity:1" d="M 1977.2088,1563.9142 L 1977.718,1577.8637 C 1973.6853,1577.6361 1970.7114,1578.3422 1971.8254,1575.8685 L 1977.2088,1563.9142 z "/>
			<path id="path2288" style="fill:#ffffff;fill-opacity:1;fill-rule:evenodd;stroke:none;stroke-width:0.40751868px;stroke-linecap:butt;stroke-linejoin:miter;stroke-opacity:1" d="M 1979.1437,1568.1887 L 1985.9672,1578.0674 C 1983.9579,1578.1968 1981.7807,1578.1583 1979.5002,1578.0165 L 1979.1437,1568.1887 z "/>
			<path id="path2290" style="fill:#ffffff;fill-opacity:1;fill-rule:evenodd;stroke:none;stroke-width:0.40751868px;stroke-linecap:butt;stroke-linejoin:miter;stroke-opacity:1" d="M 1982.8101,1568.2906 C 1987.3129,1570.2762 1990.5678,1570.9178 1993.1962,1570.2256 C 1991.4764,1578.8422 1985.249,1577.2593 1982.8101,1568.2906 z "/>
			<path id="path2292" style="fill:#ffffff;fill-opacity:1;fill-rule:evenodd;stroke:none;stroke-width:0.40751868px;stroke-linecap:butt;stroke-linejoin:miter;stroke-opacity:1" d="M 1981.9981,1565.5408 C 1983.2043,1568.9076 1995.6302,1570.7285 1993.297,1565.8464 L 1981.9981,1565.5408 z "/>
			<path id="path2294" style="fill:#ffffff;fill-opacity:1;fill-rule:evenodd;stroke:none;stroke-width:0.40751868px;stroke-linecap:butt;stroke-linejoin:miter;stroke-opacity:1" d="M 1978.8427,1563.9098 C 1990.5645,1559.2136 1995.5587,1559.6358 1993.1979,1563.6059 L 1978.8427,1563.9098 z "/>
			<path id="path2296" style="fill:#ffffff;fill-opacity:1;fill-rule:evenodd;stroke:none;stroke-width:0.40751868px;stroke-linecap:butt;stroke-linejoin:miter;stroke-opacity:1" d="M 1991.7721,1558.9212 C 1987.9547,1559.5754 1982.9221,1560.4363 1978.0246,1560.5506 C 1974.0445,1554.5499 1993.4861,1556.0808 1991.7721,1558.9212 z "/>
			<path id="path2298" style="fill:#ffffff;fill-opacity:1;fill-rule:evenodd;stroke:none;stroke-width:0.40751868px;stroke-linecap:butt;stroke-linejoin:miter;stroke-opacity:1" d="M 1976.2868,1580.6974 L 1978.8755,1580.4423 C 1982.2029,1619.4517 1981.5639,1619.3327 2007.2049,1644.7965 C 1998.9713,1651.7456 1993.637,1642.8443 1992.0789,1641.1591 C 1985.1039,1633.6153 1977.0051,1621.3022 1976.2868,1580.6974 z "/>
			<path id="path2300" style="fill:#ffffff;fill-opacity:1;fill-rule:evenodd;stroke:none;stroke-width:0.40751868px;stroke-linecap:butt;stroke-linejoin:miter;stroke-opacity:1" d="M 1980.4187,1580.5172 L 1983.7983,1580.462 C 1988.4745,1620.78 1987.5834,1609.6567 2013.8604,1636.6134 C 2015.4236,1638.383 2010.0834,1645.0518 2007.5269,1642.4791 C 1989.9183,1624.2722 1982.5722,1620.8343 1980.4187,1580.5172 z "/>
			<path id="path2302" style="fill:#ffffff;fill-opacity:1;fill-rule:evenodd;stroke:none;stroke-width:0.40751868px;stroke-linecap:butt;stroke-linejoin:miter;stroke-opacity:1" d="M 1985.1026,1580.01 L 1986.9955,1579.2306 C 1997.2983,1622.0926 2007.3667,1614.8863 2021.5123,1628.3336 C 2023.9619,1630.5605 2017.3925,1638.2433 2014.2749,1634.4576 C 1993.4573,1613.2699 1988.8958,1619.8733 1985.1026,1580.01 z "/>
			<path id="path2304" style="fill:#ffffff;fill-opacity:1;fill-rule:evenodd;stroke:none;stroke-width:0.40751868px;stroke-linecap:butt;stroke-linejoin:miter;stroke-opacity:1" d="M 1988.4186,1578.9036 L 1990.8579,1576.9078 C 1999.0998,1607.7685 2009.4483,1604.5901 2031.2171,1624.9175 C 2034.8021,1628.1329 2026.9668,1631.1266 2023.6775,1627.5786 C 2001.0586,1606.2532 2003.1653,1623.9565 1988.4186,1578.9036 z "/>
			<path id="path2306" style="fill:#ffffff;fill-opacity:1;fill-rule:evenodd;stroke:none;stroke-width:0.40751868px;stroke-linecap:butt;stroke-linejoin:miter;stroke-opacity:1" d="M 1992.0776,1576.6861 L 1994.6277,1573.2489 C 2009.1097,1605.1386 2026.2838,1605.9167 2043.6353,1620.1498 C 2050.1401,1630.0548 2035.2456,1626.9872 2033.5455,1625.2501 C 2012.5159,1602.0399 2003.9044,1610.6514 1992.0776,1576.6861 z "/>
		</g>
		<path d="M 2545.3558,1447.9983 C 2542.7501,1448.5907 2540.6202,1449.1857 2538.6574,1452.9916 C 2536.5608,1456.5102 2537.9428,1461.7775 2535.8973,1465.1336 C 2541.0386,1464.1127 2545.0467,1460.3115 2544.8279,1458.2514 C 2545.1213,1455.2908 2545.3381,1451.5635 2545.3558,1447.9983 z " style="fill:#ffffff;fill-opacity:1;fill-rule:evenodd;stroke:none;stroke-width:0.40751868px;stroke-linecap:butt;stroke-linejoin:miter;stroke-opacity:1" id="path8122"/>
		<path d="M 2624.4548,1549.3565 C 2624.4693,1546.5487 2628.5904,1543.8988 2622.3144,1539.1715 C 2617.3109,1534.9062 2616.013,1533.0544 2615.1301,1530.1573 C 2614.5104,1535.8065 2613.0614,1537.9696 2617.1514,1541.4428 C 2619.3351,1543.5293 2621.5784,1545.656 2624.4548,1549.3565 z " style="fill:#ffffff;fill-opacity:1;fill-rule:evenodd;stroke:none;stroke-width:0.40751868px;stroke-linecap:butt;stroke-linejoin:miter;stroke-opacity:1" id="path9093"/>
		<path d="M 2622.909,1554.2469 C 2622.9236,1551.4391 2623.8862,1550.8013 2618.5856,1545.7738 C 2614.3325,1542.1088 2615.8175,1542.0577 2613.1339,1540.6614 C 2612.2141,1544.3596 2609.9056,1544.9336 2613.9956,1548.4068 C 2616.1793,1550.4933 2619.255,1552.4702 2622.909,1554.2469 z " style="fill:#ffffff;fill-opacity:1;fill-rule:evenodd;stroke:none;stroke-width:0.40751868px;stroke-linecap:butt;stroke-linejoin:miter;stroke-opacity:1" id="path9095"/>
		<path d="M 2614.5997,1552.3694 L 2601.4632,1551.9636 C 2606.095,1547.0671 2613.1983,1548.5146 2614.5997,1552.3694 z " style="fill:#ffffff;fill-opacity:1;fill-rule:evenodd;stroke:none;stroke-width:0.40751868px;stroke-linecap:butt;stroke-linejoin:miter;stroke-opacity:1" id="path9097"/>
		<path d="M 2615.1973,1553.8977 C 2614.7724,1556.6824 2620.0494,1562.6201 2622.8326,1563.9789 C 2624.0897,1557.2365 2618.6118,1551.153 2615.1973,1553.8977 z " style="fill:#ffffff;fill-opacity:1;fill-rule:evenodd;stroke:none;stroke-width:0.40751868px;stroke-linecap:butt;stroke-linejoin:miter;stroke-opacity:1" id="path9099"/>
		<path d="M 2620.085,1572.6029 C 2624.0229,1564.8629 2614.925,1557.8359 2614.1782,1559.7708 C 2615.8416,1564.0482 2618.4216,1568.3255 2620.085,1572.6029 z " style="fill:#ffffff;fill-opacity:1;fill-rule:evenodd;stroke:none;stroke-width:0.40751868px;stroke-linecap:butt;stroke-linejoin:miter;stroke-opacity:1" id="path9101"/>
		<path d="M 2613.0926,1561.1128 L 2612.5834,1575.0623 C 2616.6161,1574.8347 2619.5899,1575.5408 2618.476,1573.0671 L 2613.0926,1561.1128 z " style="fill:#ffffff;fill-opacity:1;fill-rule:evenodd;stroke:none;stroke-width:0.40751868px;stroke-linecap:butt;stroke-linejoin:miter;stroke-opacity:1" id="path9103"/>
		<path d="M 2610.4815,1564.2041 L 2603.658,1574.0828 C 2605.6673,1574.2122 2607.8445,1574.1737 2610.125,1574.0319 L 2610.4815,1564.2041 z " style="fill:#ffffff;fill-opacity:1;fill-rule:evenodd;stroke:none;stroke-width:0.40751868px;stroke-linecap:butt;stroke-linejoin:miter;stroke-opacity:1" id="path9105"/>
		<path d="M 2607.0687,1564.8976 C 2602.5658,1566.8831 2599.0574,1566.8486 2596.429,1566.1564 C 2598.4869,1575.4492 2604.6298,1573.8663 2607.0687,1564.8976 z " style="fill:#ffffff;fill-opacity:1;fill-rule:evenodd;stroke:none;stroke-width:0.40751868px;stroke-linecap:butt;stroke-linejoin:miter;stroke-opacity:1" id="path9107"/>
		<path d="M 2607.6271,1561.5562 C 2606.4209,1564.9229 2593.995,1566.7438 2596.3282,1561.8617 L 2607.6271,1561.5562 z " style="fill:#ffffff;fill-opacity:1;fill-rule:evenodd;stroke:none;stroke-width:0.40751868px;stroke-linecap:butt;stroke-linejoin:miter;stroke-opacity:1" id="path9109"/>
		<path d="M 2610.9516,1560.5167 C 2599.2297,1555.8206 2594.2356,1556.2427 2596.5963,1560.2128 L 2610.9516,1560.5167 z " style="fill:#ffffff;fill-opacity:1;fill-rule:evenodd;stroke:none;stroke-width:0.40751868px;stroke-linecap:butt;stroke-linejoin:miter;stroke-opacity:1" id="path9111"/>
		<path d="M 2598.6983,1555.6972 C 2602.5158,1556.3514 2607.5484,1557.2123 2612.4458,1557.3266 C 2616.4259,1551.3259 2596.9843,1552.8568 2598.6983,1555.6972 z " style="fill:#ffffff;fill-opacity:1;fill-rule:evenodd;stroke:none;stroke-width:0.40751868px;stroke-linecap:butt;stroke-linejoin:miter;stroke-opacity:1" id="path9113"/>
		<path d="M 2607.3578,1577.0694 L 2604.7929,1577.0142 C 2600.1167,1617.3322 2597.9526,1603.9684 2571.6755,1630.9251 C 2570.1124,1632.6947 2576.2672,1640.7893 2578.8238,1638.2165 C 2596.4323,1620.0097 2605.2043,1617.3865 2607.3578,1577.0694 z " style="fill:#ffffff;fill-opacity:1;fill-rule:evenodd;stroke:none;stroke-width:0.40751868px;stroke-linecap:butt;stroke-linejoin:miter;stroke-opacity:1" id="path9115"/>
		<path d="M 2603.896,1576.766 L 2600.781,1575.9865 C 2588.4413,1620.6816 2578.5766,1608.3832 2564.2273,1622.6453 C 2561.7777,1624.8722 2568.3471,1632.555 2571.4647,1628.7692 C 2592.2823,1607.5816 2598.2697,1616.0182 2603.896,1576.766 z " style="fill:#ffffff;fill-opacity:1;fill-rule:evenodd;stroke:none;stroke-width:0.40751868px;stroke-linecap:butt;stroke-linejoin:miter;stroke-opacity:1" id="path9117"/>
		<path d="M 2599.7652,1575.8632 L 2597.7333,1574.0711 C 2584.1957,1609.8202 2577.5135,1596.4576 2555.7446,1616.785 C 2552.1597,1620.0004 2559.1802,1625.8456 2562.4696,1622.2976 C 2580.2,1604.8423 2585.0186,1620.9161 2599.7652,1575.8632 z " style="fill:#ffffff;fill-opacity:1;fill-rule:evenodd;stroke:none;stroke-width:0.40751868px;stroke-linecap:butt;stroke-linejoin:miter;stroke-opacity:1" id="path9119"/>
		<path d="M 2597.1247,1572.831 L 2594.5745,1569.3938 C 2580.0926,1601.2835 2560.4742,1597.3768 2543.1228,1611.6099 C 2536.618,1621.5149 2549.0683,1621.7063 2550.7684,1619.9692 C 2571.798,1596.759 2585.2979,1606.7962 2597.1247,1572.831 z " style="fill:#ffffff;fill-opacity:1;fill-rule:evenodd;stroke:none;stroke-width:0.40751868px;stroke-linecap:butt;stroke-linejoin:miter;stroke-opacity:1" id="path9121"/>
		<path d="M 2611.5291,1577.2725 L 2608.9403,1577.0174 C 2605.613,1616.0268 2604.2933,1614.8632 2578.6523,1640.327 C 2586.8859,1647.2761 2592.3125,1638.9915 2593.9089,1637.3424 C 2603.2342,1627.7094 2610.8107,1617.8773 2611.5291,1577.2725 z " style="fill:#ffffff;fill-opacity:1;fill-rule:evenodd;stroke:none;stroke-width:0.40751868px;stroke-linecap:butt;stroke-linejoin:miter;stroke-opacity:1" id="path10094"/>
		<g id="g35491">
			<g transform="translate(4.502334e-4,1.8545551e-4)" id="g24788">
				<path d="M 2271.3928,685.30114 L 2294.2944,685.32146 L 2286.8571,694.67671 C 2284.8153,696.57564 2289.7433,702.97506 2292.0341,701.18357 L 2302.1054,694.98159 L 2302.2574,711.88606 L 2293.4832,706.74678 C 2289.5458,704.77042 2284.9491,710.17491 2287.6044,713.23913 L 2292.5967,722.75255 L 2273.1276,722.35593 L 2278.3289,713.61368 C 2281.6909,709.63334 2276.2758,705.28927 2273.0213,706.89196 L 2263.5302,712.60615 L 2263.3205,695.17033 L 2272.7115,700.00473 C 2275.8984,703.0225 2281.7227,698.20937 2279.1645,694.7464 L 2271.3928,685.30114 z " style="fill:#ffffff;fill-opacity:1;fill-rule:evenodd;stroke:#000000;stroke-width:2.60395074;stroke-linecap:butt;stroke-linejoin:miter;stroke-miterlimit:4;stroke-dasharray:none;stroke-opacity:1" id="path4419"/>
				<path d="M 2293.2327,723.55778 C 2302.3323,725.49774 2307.3188,736.16561 2292.2977,740.17095 C 2286.0467,742.21542 2278.8894,742.26115 2272.8476,740.7745 C 2256.7364,736.82989 2265.0944,723.22465 2272.8947,723.47744 L 2293.2327,723.55778 z " style="fill:#ffffff;fill-opacity:1;fill-rule:evenodd;stroke:#000000;stroke-width:2.60395074;stroke-linecap:butt;stroke-linejoin:miter;stroke-miterlimit:4;stroke-dasharray:none;stroke-opacity:1" id="path4421"/>
			</g>
			<path id="path4423" style="fill:#ffffff;fill-opacity:1;fill-rule:evenodd;stroke:#000000;stroke-width:2.5069778;stroke-linecap:butt;stroke-linejoin:miter;stroke-miterlimit:4;stroke-dasharray:none;stroke-opacity:1" d="M 2201.9835,807.36348 C 2205.3555,813.58433 2211.6996,800.83379 2213.5524,796.75896 C 2221.8522,814.06305 2220.529,820.80888 2236.6995,780.49326 C 2249.5436,809.77289 2248.937,824.29463 2260.5165,793.9239 C 2267.814,824.33474 2274.8152,808.84754 2284.0673,779.09378 C 2292.0882,805.48126 2296.6794,826.11008 2307.026,794.17294 C 2315.8422,824.86413 2317.0871,811.39228 2330.6512,779.5795 C 2341.5142,808.74669 2342.5541,823.14967 2354.0772,796.52486 C 2360.8971,810.07341 2364.7927,812.39816 2365.5069,806.99776 C 2347.7291,766.85009 2335.7082,757.76991 2298.5832,738.16781 C 2288.2832,742.21049 2272.7028,741.38161 2264.6375,737.88587 C 2223.7733,761.09775 2216.4583,781.62076 2201.9835,807.36348 z "/>
			<path id="path4437" style="fill:#ffffff;fill-opacity:1;fill-rule:evenodd;stroke:#000000;stroke-width:2.5623672;stroke-linecap:butt;stroke-linejoin:round;stroke-miterlimit:4;stroke-dasharray:none;stroke-opacity:1" d="M 2191.2351,785.63333 L 2191.2092,821.32894 L 2376.5264,821.38381 L 2376.3802,785.47059 C 2367.5009,804.571 2368.9221,820.48684 2354.1939,796.34963 C 2345.6304,820.15128 2339.4908,810.63519 2330.6415,780.50505 C 2317.3727,815.97414 2314.1661,820.09738 2306.9562,796.26614 C 2297.1266,824.4846 2290.3693,804.42174 2283.987,780.53155 C 2275.8979,808.42853 2267.917,822.52351 2260.2495,796.65631 C 2252.733,815.37399 2248.7059,818.82194 2237.1333,780.8797 C 2227.1102,808.11045 2221.723,821.65781 2213.6339,797.13772 C 2203.102,813.55588 2201.4281,817.3132 2191.2351,785.63333 z "/>
			<path id="path4427" style="fill:#ffffff;fill-opacity:1;stroke:#000000;stroke-width:2.5789485;stroke-linecap:round;stroke-linejoin:round;stroke-miterlimit:4;stroke-dasharray:none;stroke-dashoffset:0;stroke-opacity:1" d="M 2195.2024,810.60107 C 2195.2033,813.33488 2193.0732,815.5516 2190.4453,815.5516 C 2187.8173,815.5516 2185.6872,813.33488 2185.6882,810.60107 C 2185.6872,807.86727 2187.8173,805.65054 2190.4453,805.65054 C 2193.0732,805.65054 2195.2033,807.86727 2195.2024,810.60107 z "/>
			<path id="path5434" style="fill:#ffffff;fill-opacity:1;fill-rule:evenodd;stroke:#000000;stroke-width:2.81993365;stroke-linecap:butt;stroke-linejoin:round;stroke-miterlimit:4;stroke-dasharray:none;stroke-opacity:1" d="M 2185.9947,831.39923 C 2182.6847,832.34418 2182.4387,820.98239 2185.9982,821.74426 L 2381.8437,821.87062 C 2384.6594,820.92568 2384.609,831.987 2381.8403,831.46929 L 2185.9947,831.39923 z "/>
			<path id="path5442" style="fill:#ffffff;fill-opacity:1;fill-rule:evenodd;stroke:#000000;stroke-width:2.55060887;stroke-linecap:butt;stroke-linejoin:miter;stroke-miterlimit:4;stroke-dasharray:none;stroke-opacity:1" d="M 2188.8011,831.3753 L 2379.914,831.49275 C 2386.1531,844.62334 2390.4118,855.64418 2393.8034,870.89854 C 2387.8917,882.97202 2386.0183,892.96679 2373.4452,868.88654 C 2362.1722,885.5984 2363.2115,898.63662 2343.2952,853.79335 C 2322.2662,886.35846 2326.6897,895.2484 2313.3538,868.88446 C 2298.0359,894.10272 2300.7929,886.75301 2283.9113,853.53707 C 2265.1458,889.23405 2268.0127,893.89808 2254.4667,868.75788 C 2239.0526,893.75531 2242.2682,888.43752 2224.4421,854.35471 C 2204.701,888.56467 2208.0556,893.95237 2194.3754,870.13481 C 2180.7361,889.23497 2180.8352,888.9027 2173.1176,873.57451 C 2176.7931,857.27019 2181.9911,843.47049 2188.8011,831.3753 z "/>
			<path id="path5444" style="fill:#ffffff;fill-opacity:1;fill-rule:evenodd;stroke:#000000;stroke-width:2.55096006;stroke-linecap:butt;stroke-linejoin:round;stroke-miterlimit:4;stroke-dasharray:none;stroke-opacity:1" d="M 2166.2005,858.7052 L 2166.2821,896.18592 L 2401.7508,896.49476 L 2402.0907,894.45844 L 2401.7942,856.8965 C 2390.8768,879.38385 2388.1979,898.45446 2372.9723,869.8183 C 2362.1125,894.22074 2354.3265,884.46446 2343.1041,853.57377 C 2326.2772,889.93816 2322.2108,894.16548 2313.0675,869.7327 C 2300.6021,898.66344 2293.6335,879.9886 2283.9389,853.60094 C 2273.2232,884.09654 2264.1313,895.89508 2254.4077,869.37493 C 2242.4744,895.51139 2235.6522,885.65897 2224.4067,853.32639 C 2210.5523,885.41227 2205.2071,895.11485 2194.4914,870.22842 C 2182.8615,889.97825 2179.127,891.18473 2166.2005,858.7052 z "/>
			<path id="path6433" style="fill:#ffffff;fill-opacity:1;fill-rule:evenodd;stroke:#000000;stroke-width:2.88832545;stroke-linecap:butt;stroke-linejoin:round;stroke-miterlimit:4;stroke-dasharray:none;stroke-opacity:1" d="M 2160.978,908.9454 C 2156.8226,910.19042 2156.5138,895.22079 2160.9823,896.22457 L 2406.8468,896.39107 C 2410.3816,895.14606 2410.3181,909.71982 2406.8424,909.03771 L 2160.978,908.9454 z "/>
			<path id="path6435" style="fill:#ffffff;fill-opacity:1;fill-rule:evenodd;stroke:#000000;stroke-width:2.62226844;stroke-linecap:butt;stroke-linejoin:miter;stroke-miterlimit:4;stroke-dasharray:none;stroke-opacity:1" d="M 2164.0821,909.14012 L 2404.0062,908.99561 C 2409.5019,924.09442 2407.1747,931.71207 2408.5388,949.1152 C 2395.0319,973.17399 2399.5914,979.31019 2382.5485,951.97643 C 2369.3273,971.40245 2371.7693,985.43581 2350.0501,934.79747 C 2325.3868,972.65145 2332.0632,982.77551 2316.4224,952.12984 C 2298.4573,981.44378 2302.5274,972.94131 2284.2786,934.49956 C 2262.27,975.99405 2267.077,980.22838 2251.1901,951.00519 C 2233.1121,980.06242 2239.8683,976.58402 2218.4862,934.58299 C 2194.1454,976.15664 2198.9947,979.58313 2185.3261,952.30824 C 2169.409,975.24995 2171.2396,976.51275 2158.3867,949.65664 C 2159.683,932.87012 2162.0321,913.93659 2164.0821,909.14012 z "/>
			<path id="path7408" style="fill:#ffffff;fill-opacity:1;fill-rule:evenodd;stroke:#000000;stroke-width:2.50997663;stroke-linecap:butt;stroke-linejoin:round;stroke-miterlimit:4;stroke-dasharray:none;stroke-opacity:1" d="M 2153.6425,942.18753 L 2153.5278,985.40974 L 2414.3759,985.32276 L 2414.014,940.91158 C 2401.9389,964.41833 2399.3858,986.35264 2382.5457,956.41833 C 2370.2268,982.8491 2363.8692,971.67592 2349.1004,937.43822 C 2330.489,975.4511 2326.7086,978.02584 2316.186,953.91985 C 2302.6037,980.98594 2295.5108,969.9684 2284.071,937.36416 C 2270.4773,971.59869 2262.5728,980.55103 2251.2034,953.44341 C 2236.5702,978.92048 2234.4548,975.99827 2218.4308,937.89682 C 2199.214,973.79373 2196.2731,980.35017 2184.4211,954.33557 C 2171.558,974.98072 2167.9397,976.13943 2153.6425,942.18753 z "/>
			<path id="path8395" style="fill:#ffffff;fill-opacity:1;fill-rule:evenodd;stroke:#000000;stroke-width:2.81732273;stroke-linecap:butt;stroke-linejoin:round;stroke-miterlimit:4;stroke-dasharray:none;stroke-opacity:1" d="M 2152.1886,1001.5656 C 2147.9322,1003.1542 2146.4405,986.31961 2152.1934,985.63387 L 2417.1014,985.8424 C 2420.9103,984.28313 2420.8418,1002.5355 2417.0967,1001.6813 L 2152.1886,1001.5656 z "/>
			<path d="M 2241.5058,810.12372 C 2241.5067,812.85753 2239.3766,815.07425 2236.7487,815.07425 C 2234.1207,815.07425 2231.9906,812.85753 2231.9916,810.12372 C 2231.9906,807.38992 2234.1207,805.17319 2236.7487,805.17319 C 2239.3766,805.17319 2241.5067,807.38992 2241.5058,810.12372 z " style="fill:#ffffff;fill-opacity:1;stroke:#000000;stroke-width:2.5789485;stroke-linecap:round;stroke-linejoin:round;stroke-miterlimit:4;stroke-dasharray:none;stroke-dashoffset:0;stroke-opacity:1" id="path26730"/>
			<path id="path26732" style="fill:#ffffff;fill-opacity:1;stroke:#000000;stroke-width:2.5789485;stroke-linecap:round;stroke-linejoin:round;stroke-miterlimit:4;stroke-dasharray:none;stroke-dashoffset:0;stroke-opacity:1" d="M 2288.0478,810.12372 C 2288.0487,812.85753 2285.9186,815.07425 2283.2907,815.07425 C 2280.6627,815.07425 2278.5326,812.85753 2278.5336,810.12372 C 2278.5326,807.38992 2280.6627,805.17319 2283.2907,805.17319 C 2285.9186,805.17319 2288.0487,807.38992 2288.0478,810.12372 z "/>
			<path d="M 2335.3059,810.12372 C 2335.3068,812.85753 2333.1767,815.07425 2330.5488,815.07425 C 2327.9208,815.07425 2325.7907,812.85753 2325.7917,810.12372 C 2325.7907,807.38992 2327.9208,805.17319 2330.5488,805.17319 C 2333.1767,805.17319 2335.3068,807.38992 2335.3059,810.12372 z " style="fill:#ffffff;fill-opacity:1;stroke:#000000;stroke-width:2.5789485;stroke-linecap:round;stroke-linejoin:round;stroke-miterlimit:4;stroke-dasharray:none;stroke-dashoffset:0;stroke-opacity:1" id="path26734"/>
			<path id="path26736" style="fill:#ffffff;fill-opacity:1;stroke:#000000;stroke-width:2.5789485;stroke-linecap:round;stroke-linejoin:round;stroke-miterlimit:4;stroke-dasharray:none;stroke-dashoffset:0;stroke-opacity:1" d="M 2380.8932,810.60107 C 2380.8941,813.33488 2378.764,815.5516 2376.1361,815.5516 C 2373.5081,815.5516 2371.378,813.33488 2371.379,810.60107 C 2371.378,807.86727 2373.5081,805.65054 2376.1361,805.65054 C 2378.764,805.65054 2380.8941,807.86727 2380.8932,810.60107 z "/>
			<path d="M 2171.1499,888.20462 C 2171.1508,890.93843 2169.0207,893.15515 2166.3928,893.15515 C 2163.7648,893.15515 2161.6347,890.93843 2161.6357,888.20462 C 2161.6347,885.47082 2163.7648,883.25409 2166.3928,883.25409 C 2169.0207,883.25409 2171.1508,885.47082 2171.1499,888.20462 z " style="fill:#ffffff;fill-opacity:1;stroke:#000000;stroke-width:2.5789485;stroke-linecap:round;stroke-linejoin:round;stroke-miterlimit:4;stroke-dasharray:none;stroke-dashoffset:0;stroke-opacity:1" id="path31589"/>
			<path id="path31591" style="fill:#ffffff;fill-opacity:1;stroke:#000000;stroke-width:2.5789485;stroke-linecap:round;stroke-linejoin:round;stroke-miterlimit:4;stroke-dasharray:none;stroke-dashoffset:0;stroke-opacity:1" d="M 2228.7853,887.29698 C 2228.7862,890.03079 2226.6561,892.24751 2224.0282,892.24751 C 2221.4002,892.24751 2219.2701,890.03079 2219.2711,887.29698 C 2219.2701,884.56318 2221.4002,882.34645 2224.0282,882.34645 C 2226.6561,882.34645 2228.7862,884.56318 2228.7853,887.29698 z "/>
			<path d="M 2288.6898,887.29698 C 2288.6907,890.03079 2286.5606,892.24751 2283.9327,892.24751 C 2281.3047,892.24751 2279.1746,890.03079 2279.1756,887.29698 C 2279.1746,884.56318 2281.3047,882.34645 2283.9327,882.34645 C 2286.5606,882.34645 2288.6907,884.56318 2288.6898,887.29698 z " style="fill:#ffffff;fill-opacity:1;stroke:#000000;stroke-width:2.5789485;stroke-linecap:round;stroke-linejoin:round;stroke-miterlimit:4;stroke-dasharray:none;stroke-dashoffset:0;stroke-opacity:1" id="path31593"/>
			<path id="path31595" style="fill:#ffffff;fill-opacity:1;stroke:#000000;stroke-width:2.5789485;stroke-linecap:round;stroke-linejoin:round;stroke-miterlimit:4;stroke-dasharray:none;stroke-dashoffset:0;stroke-opacity:1" d="M 2347.2328,885.93551 C 2347.2337,888.66932 2345.1036,890.88604 2342.4757,890.88604 C 2339.8477,890.88604 2337.7176,888.66932 2337.7186,885.93551 C 2337.7176,883.20171 2339.8477,880.98498 2342.4757,880.98498 C 2345.1036,880.98498 2347.2337,883.20171 2347.2328,885.93551 z "/>
			<path d="M 2406.2297,887.7508 C 2406.2306,890.48461 2404.1005,892.70133 2401.4726,892.70133 C 2398.8446,892.70133 2396.7145,890.48461 2396.7155,887.7508 C 2396.7145,885.017 2398.8446,882.80027 2401.4726,882.80027 C 2404.1005,882.80027 2406.2306,885.017 2406.2297,887.7508 z " style="fill:#ffffff;fill-opacity:1;stroke:#000000;stroke-width:2.5789485;stroke-linecap:round;stroke-linejoin:round;stroke-miterlimit:4;stroke-dasharray:none;stroke-dashoffset:0;stroke-opacity:1" id="path31597"/>
			<path id="path33537" style="fill:#ffffff;fill-opacity:1;stroke:#000000;stroke-width:2.5789485;stroke-linecap:round;stroke-linejoin:round;stroke-miterlimit:4;stroke-dasharray:none;stroke-dashoffset:0;stroke-opacity:1" d="M 2157.3512,975.81048 C 2157.3521,978.54429 2155.222,980.76101 2152.5941,980.76101 C 2149.9661,980.76101 2147.836,978.54429 2147.837,975.81048 C 2147.836,973.07668 2149.9661,970.85995 2152.5941,970.85995 C 2155.222,970.85995 2157.3521,973.07668 2157.3512,975.81048 z "/>
			<path d="M 2419.8479,975.16868 C 2419.8488,977.90249 2417.7187,980.11921 2415.0908,980.11921 C 2412.4628,980.11921 2410.3327,977.90249 2410.3337,975.16868 C 2410.3327,972.43488 2412.4628,970.21815 2415.0908,970.21815 C 2417.7187,970.21815 2419.8488,972.43488 2419.8479,975.16868 z " style="fill:#ffffff;fill-opacity:1;stroke:#000000;stroke-width:2.5789485;stroke-linecap:round;stroke-linejoin:round;stroke-miterlimit:4;stroke-dasharray:none;stroke-dashoffset:0;stroke-opacity:1" id="path33539"/>
			<path d="M 2222.8149,975.16868 C 2222.8158,977.90249 2220.6857,980.11921 2218.0578,980.11921 C 2215.4298,980.11921 2213.2997,977.90249 2213.3007,975.16868 C 2213.2997,972.43488 2215.4298,970.21815 2218.0578,970.21815 C 2220.6857,970.21815 2222.8158,972.43488 2222.8149,975.16868 z " style="fill:#ffffff;fill-opacity:1;stroke:#000000;stroke-width:2.5789485;stroke-linecap:round;stroke-linejoin:round;stroke-miterlimit:4;stroke-dasharray:none;stroke-dashoffset:0;stroke-opacity:1" id="path33541"/>
			<path id="path33543" style="fill:#ffffff;fill-opacity:1;stroke:#000000;stroke-width:2.5789485;stroke-linecap:round;stroke-linejoin:round;stroke-miterlimit:4;stroke-dasharray:none;stroke-dashoffset:0;stroke-opacity:1" d="M 2288.2786,975.81048 C 2288.2795,978.54429 2286.1494,980.76101 2283.5215,980.76101 C 2280.8935,980.76101 2278.7634,978.54429 2278.7644,975.81048 C 2278.7634,973.07668 2280.8935,970.85995 2283.5215,970.85995 C 2286.1494,970.85995 2288.2795,973.07668 2288.2786,975.81048 z "/>
			<path d="M 2354.0632,976.13138 C 2354.0641,978.86519 2351.934,981.08191 2349.3061,981.08191 C 2346.6781,981.08191 2344.548,978.86519 2344.549,976.13138 C 2344.548,973.39758 2346.6781,971.18085 2349.3061,971.18085 C 2351.934,971.18085 2354.0641,973.39758 2354.0632,976.13138 z " style="fill:#ffffff;fill-opacity:1;stroke:#000000;stroke-width:2.5789485;stroke-linecap:round;stroke-linejoin:round;stroke-miterlimit:4;stroke-dasharray:none;stroke-dashoffset:0;stroke-opacity:1" id="path33545"/>
		</g>
	</g>
</svg>
